<svg width="350" height="345" viewBox="0 0 350 345" fill="none" xmlns="http://www.w3.org/2000/svg">
<circle opacity="0.03" cx="172.12" cy="168.98" r="128.746" fill="#673AB7"/>
<path d="M332.217 165.069H324.708C322.057 165.069 321.459 166.434 321.131 168.12L319.92 174.061H337.019L335.808 168.12C335.452 166.434 334.867 165.069 332.217 165.069Z" stroke="#673AB7" stroke-width="1.5" stroke-linecap="round" stroke-linejoin="round"/>
<path d="M339.128 183.757C339.242 185.048 338.244 186.163 336.962 186.163H334.953C333.799 186.163 333.642 185.649 333.428 185.033L333.214 184.373C332.915 183.478 332.716 182.862 331.177 182.862H325.705C324.166 182.862 323.938 183.552 323.667 184.373L323.454 185.033C323.254 185.664 323.097 186.163 321.929 186.163H319.92C318.637 186.163 317.626 185.048 317.754 183.757L318.352 177.053C318.509 175.396 318.808 174.046 321.615 174.046H335.252C338.059 174.046 338.358 175.396 338.515 177.053L339.128 183.757Z" stroke="#673AB7" stroke-width="1.5" stroke-linecap="round" stroke-linejoin="round"/>
<path d="M319.906 170.761H318.837" stroke="#673AB7" stroke-width="1.5" stroke-linecap="round" stroke-linejoin="round"/>
<path d="M338.073 170.761H337.005" stroke="#673AB7" stroke-width="1.5" stroke-linecap="round" stroke-linejoin="round"/>
<path d="M322.043 178.462H325.249" stroke="#673AB7" stroke-width="1.5" stroke-linecap="round" stroke-linejoin="round"/>
<path d="M331.661 178.462H334.867" stroke="#673AB7" stroke-width="1.5" stroke-linecap="round" stroke-linejoin="round"/>
<path d="M341.579 166.712C341.978 165.759 341.835 164.468 341.094 163.339C340.368 162.209 339.256 161.578 338.244 161.593" stroke="#673AB7" stroke-width="1.5" stroke-linecap="round" stroke-linejoin="round"/>
<path d="M346.01 168.164C346.609 165.949 346.181 163.236 344.657 160.889C343.132 158.542 340.852 157.104 338.629 156.826" stroke="#673AB7" stroke-width="1.5" stroke-linecap="round" stroke-linejoin="round"/>
<path d="M183.744 19.8756C183.145 20.477 182.803 21.3424 182.889 22.2665C183.017 23.8507 184.428 25.0095 185.966 25.0095H188.674V26.7551C188.674 29.7914 186.266 32.2704 183.316 32.2704H166.958C164.008 32.2704 161.6 29.7914 161.6 26.7551V16.8833C161.6 13.8469 164.008 11.368 166.958 11.368H183.316C186.266 11.368 188.674 13.8469 188.674 16.8833V18.9955H185.795C184.998 18.9955 184.271 19.3182 183.744 19.8756Z" stroke="#673AB7" stroke-width="1.5" stroke-linecap="round" stroke-linejoin="round"/>
<path d="M161.6 18.2034V11.5C161.6 9.7545 162.64 8.19958 164.222 7.58351L175.536 3.183C177.303 2.49359 179.198 3.84312 179.198 5.79401V11.368" stroke="#673AB7" stroke-width="1.5" stroke-linecap="round" stroke-linejoin="round"/>
<path d="M190.183 20.4919V23.5137C190.183 24.3204 189.556 24.9804 188.758 25.0098H185.965C184.426 25.0098 183.015 23.851 182.887 22.2668C182.801 21.3427 183.143 20.4773 183.742 19.8759C184.269 19.3185 184.996 18.9958 185.794 18.9958H188.758C189.556 19.0251 190.183 19.6851 190.183 20.4919Z" stroke="#673AB7" stroke-width="1.5" stroke-linecap="round" stroke-linejoin="round"/>
<path d="M168.012 17.602H177.987" stroke="#673AB7" stroke-width="1.5" stroke-linecap="round" stroke-linejoin="round"/>
<path d="M5.133 186.163V161.226C5.133 158.293 7.0424 156.826 9.40778 156.826H20.8072C23.1726 156.826 25.082 158.293 25.082 161.226V186.163H5.133Z" stroke="#673AB7" stroke-width="1.5" stroke-linecap="round" stroke-linejoin="round"/>
<path d="M2.99561 186.163H27.2194" stroke="#673AB7" stroke-width="1.5" stroke-linecap="round" stroke-linejoin="round"/>
<path d="M12.1009 168.56H18.1283C19.6103 168.56 20.8214 167.827 20.8214 165.788V163.984C20.8214 161.945 19.6103 161.212 18.1283 161.212H12.1009C10.619 161.212 9.40778 161.945 9.40778 163.984V165.788C9.40778 167.827 10.619 168.56 12.1009 168.56Z" stroke="#673AB7" stroke-width="1.5" stroke-linecap="round" stroke-linejoin="round"/>
<path d="M9.40778 172.961H13.6826" stroke="#673AB7" stroke-width="1.5" stroke-linecap="round" stroke-linejoin="round"/>
<path d="M25.082 177.376L31.4941 177.361V168.56L28.6443 167.094" stroke="#673AB7" stroke-width="1.5" stroke-linecap="round" stroke-linejoin="round"/>
<path d="M160.888 306.73H163.367C164.906 306.73 166.117 308.094 165.989 309.663L164.806 324.273C164.607 326.664 166.445 328.717 168.782 328.717H183.957C186.009 328.717 187.805 326.987 187.961 324.889L188.731 313.888C188.902 311.453 187.106 309.473 184.727 309.473H166.331" stroke="#673AB7" stroke-width="1.5" stroke-miterlimit="10" stroke-linecap="round" stroke-linejoin="round"/>
<path d="M181.193 336.066C182.177 336.066 182.974 335.245 182.974 334.233C182.974 333.22 182.177 332.399 181.193 332.399C180.209 332.399 179.412 333.22 179.412 334.233C179.412 335.245 180.209 336.066 181.193 336.066Z" stroke="#673AB7" stroke-width="1.5" stroke-miterlimit="10" stroke-linecap="round" stroke-linejoin="round"/>
<path d="M169.794 336.066C170.777 336.066 171.575 335.245 171.575 334.233C171.575 333.22 170.777 332.399 169.794 332.399C168.81 332.399 168.012 333.22 168.012 334.233C168.012 335.245 168.81 336.066 169.794 336.066Z" stroke="#673AB7" stroke-width="1.5" stroke-miterlimit="10" stroke-linecap="round" stroke-linejoin="round"/>
<path d="M170.862 316.997H187.961" stroke="#673AB7" stroke-width="1.5" stroke-miterlimit="10" stroke-linecap="round" stroke-linejoin="round"/>
<path d="M62.1068 276.31C62.1068 274.344 63.7027 272.748 65.6691 272.748V271.323C65.6691 265.623 64.2442 264.198 58.5444 264.198H44.2952C38.5955 264.198 37.1705 265.623 37.1705 271.323V272.035C39.1369 272.035 40.7329 273.631 40.7329 275.598C40.7329 277.564 39.1369 279.16 37.1705 279.16V279.872C37.1705 285.572 38.5955 286.997 44.2952 286.997H58.5444C64.2442 286.997 65.6691 285.572 65.6691 279.872C63.7027 279.872 62.1068 278.277 62.1068 276.31Z" stroke="#673AB7" stroke-width="1.5" stroke-linecap="round" stroke-linejoin="round"/>
<path d="M48.5699 264.198L48.5699 286.997" stroke="#673AB7" stroke-width="1.5" stroke-linecap="round" stroke-linejoin="round" stroke-dasharray="5 5"/>
<path d="M282.325 281.125L299.353 264.097" stroke="#673AB7" stroke-width="1.5" stroke-miterlimit="10" stroke-linecap="round" stroke-linejoin="round"/>
<path d="M292.544 284.545L294.254 282.835" stroke="#673AB7" stroke-width="1.5" stroke-miterlimit="10" stroke-linecap="round" stroke-linejoin="round"/>
<path d="M296.38 280.711L299.786 277.306" stroke="#673AB7" stroke-width="1.5" stroke-miterlimit="10" stroke-linecap="round" stroke-linejoin="round"/>
<path d="M281.857 273.088L291.319 263.627C294.34 260.606 295.85 260.592 298.843 263.584L305.839 270.581C308.831 273.573 308.817 275.083 305.796 278.104L296.335 287.566C293.314 290.587 291.803 290.601 288.811 287.608L281.815 280.612C278.822 277.62 278.822 276.123 281.857 273.088Z" stroke="#673AB7" stroke-width="1.5" stroke-linecap="round" stroke-linejoin="round"/>
<path d="M279.576 289.845H308.074" stroke="#673AB7" stroke-width="1.5" stroke-linecap="round" stroke-linejoin="round"/>
<path d="M47.1878 79.1865L50.5079 76.3937C51.0066 75.9662 51.833 75.9662 52.3318 76.3937L55.6518 79.1865C56.4213 79.5713 57.3618 79.1865 57.6467 78.3601L58.2737 76.4649C58.4304 76.009 58.2737 75.3392 57.9317 74.9973L54.6971 71.7484C54.4549 71.5204 54.2697 71.0645 54.2697 70.7367V66.6757C54.2697 66.0772 54.7114 65.7922 55.2671 66.0202L62.2635 69.0411C63.3607 69.5113 64.2584 68.9271 64.2584 67.7301V65.892C64.2584 64.9373 63.5459 63.8401 62.6625 63.4696L54.6971 60.0355C54.4691 59.9358 54.2697 59.6365 54.2697 59.3801V55.1053C54.2697 53.7658 53.2865 52.1842 52.0895 51.5715C51.662 51.3577 51.1633 51.3577 50.7358 51.5715C49.5389 52.1842 48.5557 53.7801 48.5557 55.1195V59.3943C48.5557 59.6508 48.3562 59.95 48.1282 60.0498L40.1771 63.4838C39.2937 63.8401 38.5812 64.9373 38.5812 65.892V67.7301C38.5812 68.9271 39.4789 69.5113 40.5761 69.0411L47.5725 66.0202C48.114 65.778 48.5699 66.0772 48.5699 66.6757V70.7367C48.5699 71.0645 48.3847 71.5204 48.1567 71.7484L44.9221 74.9973C44.5802 75.3392 44.4234 75.9947 44.5802 76.4649L45.2071 78.3601C45.4636 79.1865 46.4041 79.5855 47.1878 79.1865Z" stroke="#673AB7" stroke-width="1.5" stroke-linecap="round" stroke-linejoin="round"/>
<path d="M284.605 72.1684V68.6061C284.605 65.058 287.469 62.1939 291.017 62.1939H294.58" stroke="#673AB7" stroke-width="1.5" stroke-linecap="round" stroke-linejoin="round"/>
<path d="M303.129 62.1939H306.691C310.239 62.1939 313.104 65.058 313.104 68.6061V72.1684" stroke="#673AB7" stroke-width="1.5" stroke-linecap="round" stroke-linejoin="round"/>
<path d="M313.104 82.1429V84.2803C313.104 87.8283 310.239 90.6924 306.691 90.6924H304.554" stroke="#673AB7" stroke-width="1.5" stroke-linecap="round" stroke-linejoin="round"/>
<path d="M294.58 90.6924H291.017C287.469 90.6924 284.605 87.8283 284.605 84.2802V80.7179" stroke="#673AB7" stroke-width="1.5" stroke-linecap="round" stroke-linejoin="round"/>
<path d="M296.717 69.3185V72.1684C296.717 73.5933 296.004 74.3058 294.58 74.3058H291.73C290.305 74.3058 289.592 73.5933 289.592 72.1684V69.3185C289.592 67.8936 290.305 67.1811 291.73 67.1811H294.58C296.004 67.1811 296.717 67.8936 296.717 69.3185Z" stroke="#673AB7" stroke-width="1.5" stroke-linecap="round" stroke-linejoin="round"/>
<path d="M308.116 69.3185V72.1684C308.116 73.5933 307.404 74.3058 305.979 74.3058H303.129C301.704 74.3058 300.992 73.5933 300.992 72.1684V69.3185C300.992 67.8936 301.704 67.1811 303.129 67.1811H305.979C307.404 67.1811 308.116 67.8936 308.116 69.3185Z" stroke="#673AB7" stroke-width="1.5" stroke-linecap="round" stroke-linejoin="round"/>
<path d="M296.717 80.7179V83.5678C296.717 84.9927 296.004 85.7052 294.58 85.7052H291.73C290.305 85.7052 289.592 84.9927 289.592 83.5678V80.7179C289.592 79.293 290.305 78.5805 291.73 78.5805H294.58C296.004 78.5805 296.717 79.293 296.717 80.7179Z" stroke="#673AB7" stroke-width="1.5" stroke-linecap="round" stroke-linejoin="round"/>
<path d="M308.116 80.7179V83.5678C308.116 84.9927 307.404 85.7052 305.979 85.7052H303.129C301.704 85.7052 300.992 84.9927 300.992 83.5678V80.7179C300.992 79.293 301.704 78.5805 303.129 78.5805H305.979C307.404 78.5805 308.116 79.293 308.116 80.7179Z" stroke="#673AB7" stroke-width="1.5" stroke-linecap="round" stroke-linejoin="round"/>
<circle opacity="0.4" cx="106.665" cy="304" r="6" fill="#673AB7"/>
<circle opacity="0.4" cx="103.665" cy="39" r="6" fill="#673AB7"/>
<circle opacity="0.4" cx="239.475" cy="304" r="6" fill="#673AB7"/>
<circle opacity="0.4" cx="312.901" cy="226.277" r="6" fill="#673AB7"/>
<circle opacity="0.4" cx="34.1924" cy="226.277" r="6" fill="#673AB7"/>
<circle opacity="0.4" cx="312.901" cy="122.676" r="6" fill="#673AB7"/>
<circle opacity="0.4" cx="33.1924" cy="122.676" r="6" fill="#673AB7"/>
<circle opacity="0.4" cx="239.475" cy="39" r="6" fill="#673AB7"/>
<g clip-path="url(#clip0_72_1931)">
<path d="M156.085 132.953H155.236V112.714C155.236 111.176 154.888 109.652 154.211 108.231C153.534 106.81 152.542 105.519 151.291 104.431C150.041 103.343 148.556 102.48 146.922 101.892C145.288 101.303 143.537 101 141.768 101H92.4679C90.6993 101 88.948 101.303 87.314 101.892C85.68 102.48 84.1953 103.343 82.9447 104.431C81.6941 105.519 80.702 106.81 80.0252 108.231C79.3484 109.652 79 111.176 79 112.714V223.749C79 225.288 79.3484 226.811 80.0252 228.232C80.702 229.653 81.6941 230.945 82.9447 232.032C84.1953 233.12 85.68 233.983 87.314 234.572C88.948 235.16 90.6993 235.463 92.4679 235.463H141.768C143.537 235.463 145.288 235.16 146.922 234.572C148.556 233.983 150.041 233.12 151.291 232.032C152.542 230.945 153.534 229.653 154.211 228.232C154.888 226.811 155.236 225.288 155.236 223.749V147.36H156.085V132.953Z" fill="#673AB7" fill-opacity="0.4"/>
<path d="M142.311 104.048H135.876C136.172 104.679 136.285 105.363 136.205 106.041C136.125 106.719 135.855 107.37 135.418 107.935C134.981 108.501 134.39 108.965 133.699 109.285C133.007 109.606 132.236 109.773 131.452 109.773H103.209C102.425 109.773 101.654 109.606 100.962 109.285C100.27 108.965 99.6801 108.501 99.243 107.935C98.806 107.37 98.5355 106.719 98.4556 106.041C98.3756 105.363 98.4886 104.679 98.7845 104.048H92.7739C91.4532 104.048 90.1453 104.274 88.925 104.713C87.7048 105.153 86.596 105.797 85.6621 106.61C84.7281 107.422 83.9873 108.386 83.4819 109.448C82.9764 110.509 82.7162 111.647 82.7162 112.795V223.668C82.7162 224.817 82.9764 225.954 83.4818 227.015C83.9873 228.077 84.7281 229.041 85.6621 229.853C86.596 230.666 87.7048 231.31 88.925 231.75C90.1453 232.189 91.4531 232.416 92.7739 232.416H142.311C143.632 232.416 144.94 232.189 146.16 231.75C147.381 231.31 148.489 230.666 149.423 229.853C150.357 229.041 151.098 228.077 151.604 227.015C152.109 225.954 152.369 224.817 152.369 223.668V112.795C152.369 111.647 152.109 110.509 151.604 109.448C151.098 108.386 150.357 107.422 149.423 106.61C148.489 105.797 147.381 105.153 146.16 104.713C144.94 104.274 143.632 104.048 142.311 104.048Z" fill="white"/>
<path d="M102.948 126.587H99.9903C99.8863 126.587 99.7865 126.623 99.713 126.687C99.6395 126.751 99.5981 126.837 99.5981 126.928V128.057C99.5981 128.147 99.6395 128.234 99.713 128.298C99.7865 128.362 99.8863 128.398 99.9903 128.398H100.48V130.09H102.458V128.398H102.948C103.052 128.398 103.152 128.362 103.225 128.298C103.299 128.234 103.34 128.147 103.34 128.057V126.928C103.34 126.837 103.299 126.751 103.225 126.687C103.152 126.623 103.052 126.587 102.948 126.587Z" fill="#CAC7CE"/>
<path d="M105.91 136.921C104.099 134.616 103.173 131.871 103.265 129.079C103.267 129.015 103.243 128.952 103.197 128.901C103.151 128.851 103.087 128.815 103.015 128.801V128.313H99.891V128.794H99.8479C99.7629 128.794 99.6814 128.824 99.6214 128.876C99.5614 128.929 99.5277 128.999 99.5278 129.073C99.5278 129.08 99.5281 129.087 99.5287 129.094C99.7748 132.077 98.9438 134.753 97.0357 137.121C96.9259 137.257 96.8698 137.42 96.8758 137.587L97.2174 146.776C97.2256 146.981 97.3245 147.176 97.4935 147.319C97.6625 147.462 97.8884 147.543 98.1242 147.544H105.19C105.428 147.543 105.657 147.46 105.826 147.314C105.995 147.168 106.093 146.97 106.097 146.763L106.229 137.84C106.233 137.513 106.122 137.192 105.91 136.921Z" fill="#CAC7CE"/>
<path d="M104.792 139.973H98.6421C98.551 139.973 98.4611 139.991 98.3784 140.024C98.2957 140.057 98.2221 140.105 98.1629 140.165C98.1036 140.225 98.06 140.296 98.035 140.372C98.01 140.448 98.0042 140.528 98.018 140.606L98.9474 145.86H104.284L105.413 140.624C105.43 140.545 105.427 140.463 105.403 140.385C105.38 140.307 105.337 140.234 105.278 140.172C105.219 140.11 105.144 140.06 105.06 140.026C104.976 139.991 104.885 139.973 104.792 139.973Z" fill="white"/>
<path d="M135.873 154.116H132.916C132.812 154.116 132.712 154.152 132.638 154.216C132.565 154.28 132.523 154.366 132.523 154.457V155.586C132.523 155.676 132.565 155.763 132.638 155.827C132.712 155.891 132.812 155.927 132.916 155.927H133.406V157.619H135.383V155.927H135.873C135.977 155.927 136.077 155.891 136.151 155.827C136.224 155.763 136.265 155.676 136.265 155.586V154.457C136.265 154.366 136.224 154.28 136.151 154.216C136.077 154.152 135.977 154.116 135.873 154.116Z" fill="#CAC7CE"/>
<path d="M138.836 164.45C137.024 162.145 136.098 159.4 136.19 156.608C136.192 156.544 136.168 156.481 136.122 156.43C136.077 156.38 136.012 156.344 135.94 156.33V155.842H132.816V156.323H132.773C132.731 156.323 132.69 156.331 132.651 156.345C132.612 156.359 132.576 156.379 132.547 156.405C132.517 156.431 132.493 156.462 132.477 156.496C132.461 156.53 132.453 156.566 132.453 156.602C132.453 156.609 132.453 156.616 132.454 156.623C132.7 159.607 131.869 162.282 129.961 164.65C129.851 164.786 129.795 164.95 129.801 165.116L130.143 174.305C130.151 174.51 130.25 174.705 130.419 174.848C130.588 174.991 130.814 175.072 131.05 175.073H138.115C138.354 175.072 138.582 174.989 138.751 174.843C138.921 174.697 139.018 174.499 139.022 174.292L139.154 165.369C139.158 165.042 139.047 164.721 138.836 164.45Z" fill="#CAC7CE"/>
<path d="M137.717 167.503H131.567C131.476 167.503 131.386 167.52 131.304 167.553C131.221 167.586 131.147 167.634 131.088 167.694C131.029 167.754 130.985 167.825 130.96 167.901C130.935 167.977 130.929 168.057 130.943 168.135L131.873 173.389H137.209L138.338 168.153C138.355 168.074 138.352 167.992 138.329 167.914C138.305 167.836 138.262 167.763 138.203 167.701C138.144 167.639 138.07 167.589 137.986 167.555C137.902 167.52 137.81 167.503 137.717 167.503Z" fill="white"/>
<path d="M98.7898 193.034H97.3868C97.3375 193.034 97.2902 193.051 97.2553 193.081C97.2204 193.111 97.2008 193.153 97.2008 193.196V193.731C97.2008 193.774 97.2204 193.815 97.2553 193.846C97.2902 193.876 97.3375 193.893 97.3868 193.893H97.6193V194.695H98.5573V193.893H98.7898C98.8391 193.893 98.8864 193.876 98.9213 193.846C98.9562 193.815 98.9758 193.774 98.9758 193.731V193.196C98.9758 193.153 98.9562 193.111 98.9213 193.081C98.8864 193.051 98.8391 193.034 98.7898 193.034Z" fill="#CAC7CE"/>
<path d="M100.195 197.936C99.3358 196.842 98.8966 195.54 98.9402 194.216C98.941 194.186 98.9296 194.156 98.9079 194.132C98.8863 194.108 98.8557 194.091 98.8215 194.084V193.853H97.3397V194.081H97.3193C97.2993 194.081 97.2796 194.084 97.2611 194.091C97.2427 194.098 97.226 194.107 97.2119 194.12C97.1978 194.132 97.1866 194.147 97.179 194.163C97.1713 194.179 97.1674 194.196 97.1675 194.213C97.1675 194.217 97.1676 194.22 97.1679 194.223C97.3046 195.574 96.8856 196.923 95.9853 198.031C95.9333 198.095 95.9066 198.173 95.9095 198.252L96.0715 202.611C96.0754 202.708 96.1223 202.8 96.2025 202.868C96.2826 202.936 96.3898 202.974 96.5017 202.975H99.8531C99.9663 202.974 100.075 202.935 100.155 202.866C100.235 202.796 100.282 202.703 100.284 202.604L100.346 198.372C100.348 198.217 100.295 198.064 100.195 197.936Z" fill="#CAC7CE"/>
<path d="M99.7127 199.538H96.5149V200.929H99.7127V199.538Z" fill="white"/>
<path d="M105.321 193.034H103.918C103.868 193.034 103.821 193.051 103.786 193.081C103.751 193.111 103.732 193.153 103.732 193.196V193.731C103.732 193.774 103.751 193.815 103.786 193.846C103.821 193.876 103.868 193.893 103.918 193.893H104.15V194.695H105.088V193.893H105.321C105.37 193.893 105.417 193.876 105.452 193.846C105.487 193.815 105.507 193.774 105.507 193.731V193.196C105.507 193.153 105.487 193.111 105.452 193.081C105.417 193.051 105.37 193.034 105.321 193.034Z" fill="#CAC7CE"/>
<path d="M106.726 197.936C105.867 196.842 105.428 195.54 105.471 194.216C105.472 194.186 105.461 194.156 105.439 194.132C105.417 194.108 105.387 194.091 105.352 194.084V193.853H103.871V194.081H103.85C103.83 194.081 103.811 194.084 103.792 194.091C103.774 194.098 103.757 194.107 103.743 194.12C103.729 194.132 103.718 194.147 103.71 194.163C103.702 194.179 103.698 194.196 103.698 194.213C103.698 194.217 103.699 194.22 103.699 194.223C103.836 195.574 103.417 196.923 102.516 198.031C102.464 198.095 102.438 198.173 102.44 198.252L102.602 202.611C102.606 202.708 102.653 202.8 102.733 202.868C102.814 202.936 102.921 202.974 103.033 202.975H106.384C106.497 202.974 106.606 202.935 106.686 202.866C106.766 202.796 106.812 202.703 106.815 202.604L106.877 198.372C106.879 198.217 106.826 198.064 106.726 197.936Z" fill="#CAC7CE"/>
<path d="M106.244 199.538H103.046V200.929H106.244V199.538Z" fill="white"/>
<path d="M111.852 193.034H110.449C110.399 193.034 110.352 193.051 110.317 193.081C110.282 193.111 110.263 193.153 110.263 193.196V193.731C110.263 193.774 110.282 193.815 110.317 193.846C110.352 193.876 110.399 193.893 110.449 193.893H110.681V194.695H111.619V193.893H111.852C111.901 193.893 111.948 193.876 111.983 193.846C112.018 193.815 112.038 193.774 112.038 193.731V193.196C112.038 193.153 112.018 193.111 111.983 193.081C111.948 193.051 111.901 193.034 111.852 193.034Z" fill="#CAC7CE"/>
<path d="M113.257 197.936C112.398 196.842 111.958 195.54 112.002 194.216C112.003 194.186 111.991 194.156 111.97 194.132C111.948 194.108 111.918 194.091 111.883 194.084V193.853H110.402V194.081H110.381C110.361 194.081 110.341 194.084 110.323 194.091C110.305 194.098 110.288 194.107 110.274 194.12C110.26 194.132 110.248 194.147 110.241 194.163C110.233 194.179 110.229 194.196 110.229 194.213C110.229 194.217 110.23 194.22 110.23 194.223C110.367 195.574 109.947 196.923 109.047 198.031C108.995 198.095 108.969 198.173 108.971 198.252L109.133 202.611C109.137 202.708 109.184 202.8 109.264 202.868C109.345 202.936 109.452 202.974 109.564 202.975H112.915C113.028 202.974 113.136 202.935 113.217 202.866C113.297 202.796 113.343 202.703 113.345 202.604L113.408 198.372C113.41 198.217 113.357 198.064 113.257 197.936Z" fill="#CAC7CE"/>
<path d="M112.775 199.538H109.577V200.929H112.775V199.538Z" fill="white"/>
<path d="M130.735 182.384H127.777C127.726 182.384 127.675 182.393 127.627 182.41C127.58 182.427 127.536 182.452 127.5 182.484C127.464 182.515 127.435 182.553 127.415 182.594C127.395 182.636 127.385 182.68 127.385 182.725V183.854C127.385 183.945 127.427 184.031 127.5 184.095C127.574 184.159 127.673 184.195 127.777 184.195H128.267V185.887H130.245V184.195H130.735C130.839 184.195 130.939 184.159 131.012 184.095C131.086 184.031 131.127 183.945 131.127 183.854V182.725C131.127 182.68 131.117 182.636 131.097 182.594C131.078 182.553 131.049 182.515 131.012 182.484C130.976 182.452 130.933 182.427 130.885 182.41C130.838 182.393 130.787 182.384 130.735 182.384Z" fill="#CAC7CE"/>
<path d="M133.698 192.718C131.886 190.413 130.96 187.668 131.052 184.877C131.054 184.812 131.03 184.749 130.984 184.698C130.938 184.648 130.874 184.612 130.802 184.598V184.11H127.678V184.591H127.635C127.593 184.591 127.551 184.599 127.512 184.613C127.473 184.627 127.438 184.647 127.408 184.673C127.379 184.699 127.355 184.73 127.339 184.764C127.323 184.798 127.315 184.834 127.315 184.871C127.315 184.877 127.315 184.884 127.316 184.891C127.562 187.875 126.731 190.55 124.823 192.918C124.713 193.054 124.657 193.218 124.663 193.384L125.004 202.574C125.013 202.778 125.112 202.973 125.281 203.116C125.45 203.259 125.675 203.34 125.911 203.341H132.977C133.215 203.34 133.444 203.257 133.613 203.111C133.783 202.965 133.88 202.767 133.884 202.56L134.016 193.637C134.02 193.31 133.909 192.989 133.698 192.718Z" fill="#CAC7CE"/>
<path d="M132.579 195.771H126.429C126.338 195.771 126.248 195.788 126.165 195.821C126.083 195.854 126.009 195.902 125.95 195.962C125.891 196.022 125.847 196.093 125.822 196.169C125.797 196.245 125.791 196.325 125.805 196.403L126.734 201.657H132.071L133.2 196.421C133.217 196.342 133.214 196.26 133.19 196.182C133.167 196.104 133.124 196.031 133.065 195.969C133.006 195.907 132.931 195.857 132.847 195.823C132.763 195.788 132.672 195.771 132.579 195.771Z" fill="white"/>
<path d="M132.35 148.727H114.719C115.951 142.931 115.668 135.931 114.719 128.404H132.35C131.426 135.931 131.15 142.931 132.35 148.727Z" fill="#CAC7CE"/>
<path d="M123.64 141.706C125.987 141.706 127.889 140.052 127.889 138.011C127.889 135.97 125.987 134.316 123.64 134.316C121.294 134.316 119.392 135.97 119.392 138.011C119.392 140.052 121.294 141.706 123.64 141.706Z" fill="white"/>
<path d="M116.206 175.702H98.5748C99.8074 169.906 99.5238 162.906 98.5748 155.379H116.206C115.282 162.906 115.006 169.906 116.206 175.702Z" fill="#CAC7CE"/>
<path d="M107.496 168.681C109.843 168.681 111.745 167.027 111.745 164.986C111.745 162.945 109.843 161.291 107.496 161.291C105.15 161.291 103.248 162.945 103.248 164.986C103.248 167.027 105.15 168.681 107.496 168.681Z" fill="white"/>
<path d="M142.334 150.021H124.703C125.935 144.224 125.652 137.225 124.703 129.697H142.334C141.41 137.225 141.134 144.224 142.334 150.021Z" fill="#673AB7" fill-opacity="0.4"/>
<path d="M133.624 143C135.971 143 137.873 141.345 137.873 139.305C137.873 137.264 135.971 135.609 133.624 135.609C131.278 135.609 129.376 137.264 129.376 139.305C129.376 141.345 131.278 143 133.624 143Z" fill="white"/>
<path d="M142.334 149.097H124.703C125.935 143.3 125.652 136.301 124.703 128.773H142.334C141.41 136.301 141.134 143.3 142.334 149.097Z" fill="#CAC7CE"/>
<path d="M133.624 142.076C135.971 142.076 137.873 140.422 137.873 138.381C137.873 136.34 135.971 134.686 133.624 134.686C131.278 134.686 129.376 136.34 129.376 138.381C129.376 140.422 131.278 142.076 133.624 142.076Z" fill="white"/>
<path d="M142.334 150.021H124.703C125.935 144.224 125.652 137.225 124.703 129.697H142.334C141.41 137.225 141.134 144.224 142.334 150.021Z" fill="#CAC7CE"/>
<path d="M133.624 143C135.971 143 137.873 141.345 137.873 139.305C137.873 137.264 135.971 135.609 133.624 135.609C131.278 135.609 129.376 137.264 129.376 139.305C129.376 141.345 131.278 143 133.624 143Z" fill="white"/>
<path d="M146.37 147.619H88.591V153.161H146.37V147.619Z" fill="#CAC7CE"/>
<path d="M146.37 175.148H88.591V180.69H146.37V175.148Z" fill="#CAC7CE"/>
<path d="M146.37 202.677H88.591V208.22H146.37V202.677Z" fill="#CAC7CE"/>
<path d="M246.878 225.163L232.483 216.308C237.338 212.195 241.754 206.338 245.976 199.716L260.371 208.571C254.619 214.253 249.747 219.828 246.878 225.163Z" fill="#673AB7"/>
<path d="M246.882 215.736C249.228 215.736 251.13 214.081 251.13 212.04C251.13 210 249.228 208.345 246.882 208.345C244.536 208.345 242.633 210 242.633 212.04C242.633 214.081 244.536 215.736 246.882 215.736Z" fill="white"/>
<path d="M177.441 184.755H175.861C175.805 184.755 175.752 184.774 175.713 184.809C175.673 184.843 175.651 184.889 175.651 184.937V185.541C175.651 185.565 175.657 185.588 175.667 185.61C175.678 185.632 175.693 185.653 175.713 185.669C175.732 185.686 175.755 185.7 175.781 185.709C175.806 185.718 175.833 185.723 175.861 185.723H176.123V186.627H177.179V185.723H177.441C177.496 185.723 177.55 185.704 177.589 185.669C177.628 185.635 177.65 185.589 177.65 185.541V184.937C177.65 184.889 177.628 184.843 177.589 184.809C177.55 184.774 177.496 184.755 177.441 184.755Z" fill="#673AB7" fill-opacity="0.4"/>
<path d="M179.023 190.276C178.056 189.044 177.561 187.578 177.61 186.087C177.611 186.052 177.598 186.019 177.574 185.992C177.55 185.965 177.515 185.946 177.477 185.938V185.677H175.808V185.934H175.785C175.762 185.935 175.74 185.938 175.719 185.946C175.698 185.953 175.68 185.964 175.664 185.978C175.648 185.992 175.635 186.009 175.627 186.027C175.618 186.045 175.614 186.064 175.614 186.084C175.614 186.087 175.614 186.091 175.614 186.094C175.768 187.616 175.296 189.136 174.282 190.383C174.224 190.455 174.194 190.543 174.197 190.631L174.379 195.541C174.384 195.65 174.437 195.754 174.527 195.831C174.617 195.907 174.738 195.95 174.864 195.951H178.638C178.766 195.95 178.888 195.906 178.978 195.828C179.069 195.75 179.121 195.644 179.123 195.534L179.193 190.767C179.196 190.592 179.136 190.421 179.023 190.276Z" fill="#673AB7"/>
<path opacity="0.2" d="M177.111 184.952C177.111 185.056 177.064 185.156 176.979 185.23C176.894 185.303 176.779 185.345 176.659 185.345C176.54 185.345 176.425 185.303 176.34 185.23C176.255 185.156 176.208 185.056 176.208 184.952" fill="black"/>
<path d="M178.288 191.222H175.102V193.069H178.288V191.222Z" fill="white"/>
<path d="M227.443 203.934H224.485C224.381 203.934 224.281 203.97 224.208 204.034C224.134 204.098 224.093 204.184 224.093 204.275V205.404C224.093 205.495 224.134 205.581 224.208 205.645C224.281 205.709 224.381 205.745 224.485 205.745H224.975V207.437H226.952V205.745H227.443C227.547 205.745 227.646 205.709 227.72 205.645C227.793 205.581 227.835 205.495 227.835 205.404V204.275C227.835 204.184 227.793 204.098 227.72 204.034C227.646 203.97 227.547 203.934 227.443 203.934Z" fill="#673AB7" fill-opacity="0.4"/>
<path d="M230.405 214.268C228.594 211.963 227.668 209.218 227.76 206.426C227.761 206.362 227.737 206.299 227.692 206.248C227.646 206.198 227.582 206.162 227.509 206.148V205.66H224.386V206.141H224.343C224.3 206.141 224.259 206.149 224.22 206.163C224.181 206.177 224.146 206.197 224.116 206.223C224.086 206.249 224.063 206.28 224.047 206.314C224.031 206.348 224.022 206.384 224.022 206.42C224.022 206.427 224.023 206.434 224.023 206.441C224.269 209.425 223.438 212.1 221.53 214.468C221.42 214.604 221.364 214.768 221.37 214.934L221.712 224.123C221.72 224.328 221.819 224.523 221.988 224.666C222.157 224.809 222.383 224.89 222.619 224.891H229.684C229.923 224.89 230.151 224.807 230.321 224.661C230.49 224.515 230.587 224.317 230.592 224.11L230.723 215.187C230.727 214.86 230.616 214.539 230.405 214.268Z" fill="#673AB7"/>
<path opacity="0.2" d="M226.826 204.302C226.826 204.497 226.737 204.684 226.578 204.822C226.42 204.96 226.204 205.038 225.98 205.038C225.756 205.038 225.54 204.96 225.382 204.822C225.223 204.684 225.134 204.497 225.134 204.302" fill="black"/>
<path d="M229.287 217.321H223.137C223.046 217.321 222.956 217.338 222.873 217.371C222.79 217.404 222.717 217.452 222.657 217.512C222.598 217.572 222.555 217.643 222.53 217.719C222.505 217.795 222.499 217.875 222.513 217.953L223.442 223.207H228.778L229.907 217.971C229.924 217.892 229.921 217.81 229.898 217.732C229.875 217.654 229.832 217.581 229.772 217.519C229.713 217.457 229.639 217.407 229.555 217.373C229.471 217.338 229.379 217.321 229.287 217.321Z" fill="white"/>
<path d="M219.004 225.149H201.373C202.605 219.353 202.322 212.353 201.373 204.826H219.004C218.08 212.353 217.804 219.353 219.004 225.149Z" fill="#673AB7"/>
<path d="M210.294 218.128C212.641 218.128 214.543 216.474 214.543 214.433C214.543 212.392 212.641 210.738 210.294 210.738C207.948 210.738 206.046 212.392 206.046 214.433C206.046 216.474 207.948 218.128 210.294 218.128Z" fill="white"/>
<path d="M146.889 161.188L150.847 160.875L153.366 155.555L148.868 153.364L146.889 161.188Z" fill="#FFB8B8"/>
<path d="M183.213 175.794C183.345 175.508 183.396 175.2 183.364 174.894C183.331 174.587 183.216 174.292 183.026 174.032C182.837 173.773 182.58 173.556 182.275 173.399C181.97 173.243 181.627 173.152 181.274 173.134L175.129 172.815L174.224 175.432L180.55 176.943C181.079 177.07 181.643 177.022 182.134 176.81C182.625 176.598 183.009 176.237 183.213 175.794Z" fill="#FFB8B8"/>
<path d="M176.614 176.987L176.547 172.077L162.896 170.182L152.38 159.692C151.833 159.146 151.077 158.792 150.252 158.693C149.427 158.595 148.59 158.761 147.894 159.159C147.473 159.4 147.118 159.718 146.854 160.091C146.59 160.465 146.423 160.884 146.366 161.32C146.309 161.756 146.362 162.197 146.523 162.612C146.683 163.028 146.947 163.408 147.295 163.725L155.97 173.011L176.614 176.987Z" fill="#575A89"/>
<path d="M143.83 232.231H147.428L156.353 197.134L165.599 207.976L170.997 231.448H174.415L173.695 206.255L161.641 179.34H149.767C146.522 184.448 143.977 189.713 146.889 195.145L143.83 232.231Z" fill="#2F2E41"/>
<path d="M168.791 234.362C168.751 234.473 168.739 234.59 168.755 234.705C168.771 234.82 168.815 234.931 168.885 235.03C168.954 235.129 169.047 235.215 169.157 235.28C169.267 235.346 169.392 235.39 169.523 235.41L178.328 236.769C178.676 236.825 179.035 236.767 179.338 236.608C179.641 236.449 179.866 236.199 179.971 235.906C180.074 235.625 180.06 235.322 179.931 235.05C179.802 234.777 179.567 234.553 179.267 234.417C177.331 233.552 175.665 232.292 174.412 230.745C173.444 231.529 172.362 231.455 171.214 230.877L169.995 231.01L168.791 234.362Z" fill="#2F2E41"/>
<path d="M142.164 234.362C142.124 234.473 142.112 234.59 142.128 234.705C142.145 234.82 142.189 234.931 142.258 235.03C142.327 235.129 142.42 235.215 142.53 235.28C142.64 235.346 142.765 235.39 142.896 235.41L151.701 236.769C152.049 236.825 152.408 236.767 152.711 236.608C153.014 236.449 153.239 236.199 153.345 235.906C153.447 235.625 153.433 235.322 153.304 235.05C153.175 234.777 152.941 234.553 152.641 234.417C150.705 233.552 149.038 232.292 147.785 230.745C146.817 231.529 145.736 231.455 144.587 230.877L143.369 231.01L142.164 234.362Z" fill="#2F2E41"/>
<path d="M153.455 157.511C156.238 157.511 158.493 155.549 158.493 153.13C158.493 150.71 156.238 148.748 153.455 148.748C150.673 148.748 148.418 150.71 148.418 153.13C148.418 155.549 150.673 157.511 153.455 157.511Z" fill="#FFB8B8"/>
<path d="M148.958 180.514L162.091 180.201L158.234 169.643C160.631 166.3 158.219 162.962 154.805 159.623L152.106 158.059L147.788 157.746C145.919 159.486 144.896 161.787 144.934 164.168C145.019 169.267 146.057 174.818 148.958 180.514Z" fill="#575A89"/>
<path d="M179.132 187.621C179.382 187.403 179.57 187.137 179.678 186.844C179.787 186.552 179.814 186.241 179.758 185.937C179.701 185.634 179.562 185.346 179.353 185.098C179.144 184.85 178.869 184.649 178.553 184.512L173.047 182.116L171.032 184.212L176.165 187.766C176.594 188.063 177.133 188.213 177.68 188.186C178.228 188.159 178.745 187.958 179.132 187.621Z" fill="#FFB8B8"/>
<path d="M172.526 186.46L174.685 181.922L162.992 175.51L158.068 162.267C157.812 161.578 157.278 160.993 156.564 160.621C155.85 160.249 155.005 160.114 154.185 160.242C153.689 160.319 153.219 160.491 152.807 160.744C152.395 160.997 152.053 161.325 151.803 161.706C151.553 162.087 151.403 162.511 151.362 162.948C151.322 163.385 151.392 163.824 151.568 164.235L155.345 175.741L172.526 186.46Z" fill="#575A89"/>
<path d="M145.18 151.408C145.18 153.113 146.453 155.753 148.058 156.885C149.138 157.647 150.566 157.614 151.117 156.572C151.681 155.503 153.628 152.989 157.054 151.408C161.621 149.301 155.434 145.695 151.117 146.244C147.872 146.658 145.18 148.556 145.18 151.408Z" fill="#2F2E41"/>
<path d="M148.238 149.061C150.225 149.061 151.836 147.66 151.836 145.931C151.836 144.203 150.225 142.802 148.238 142.802C146.251 142.802 144.64 144.203 144.64 145.931C144.64 147.66 146.251 149.061 148.238 149.061Z" fill="#2F2E41"/>
<path d="M152.376 144.836C152.376 144.047 152.032 143.287 151.415 142.709C150.798 142.131 149.952 141.777 149.048 141.718C149.137 141.712 149.226 141.706 149.318 141.706C150.272 141.706 151.187 142.036 151.862 142.623C152.537 143.21 152.916 144.006 152.916 144.836C152.916 145.666 152.537 146.462 151.862 147.049C151.187 147.636 150.272 147.966 149.318 147.966C149.226 147.966 149.137 147.96 149.048 147.954C149.952 147.895 150.798 147.541 151.415 146.963C152.032 146.385 152.376 145.625 152.376 144.836Z" fill="#2F2E41"/>
<path d="M153.545 154.694C153.993 154.694 154.355 154.274 154.355 153.755C154.355 153.237 153.993 152.817 153.545 152.817C153.098 152.817 152.736 153.237 152.736 153.755C152.736 154.274 153.098 154.694 153.545 154.694Z" fill="#FFB8B8"/>
<path d="M255.494 226.491H199.481L187.62 177.722H177.497V175.533H189.659L201.52 224.303H255.494V226.491Z" fill="#3F3D56"/>
<path d="M207.689 235.401C210.667 235.401 213.081 233.301 213.081 230.712C213.081 228.122 210.667 226.022 207.689 226.022C204.712 226.022 202.298 228.122 202.298 230.712C202.298 233.301 204.712 235.401 207.689 235.401Z" fill="#3F3D56"/>
<path d="M247.946 235.401C250.923 235.401 253.337 233.301 253.337 230.712C253.337 228.122 250.923 226.022 247.946 226.022C244.968 226.022 242.554 228.122 242.554 230.712C242.554 233.301 244.968 235.401 247.946 235.401Z" fill="#3F3D56"/>
<path d="M254.473 225.461H199.975L190.36 184.131H263.496C263.869 184.131 264.238 184.201 264.577 184.337C264.916 184.473 265.217 184.671 265.46 184.917C265.702 185.164 265.88 185.453 265.982 185.766C266.084 186.078 266.106 186.406 266.049 186.726L257.025 223.562C256.932 224.092 256.623 224.576 256.154 224.924C255.686 225.272 255.089 225.463 254.473 225.461ZM200.567 224.835H254.473C254.917 224.837 255.348 224.7 255.686 224.448C256.024 224.197 256.247 223.848 256.314 223.465L265.338 186.629C265.38 186.398 265.364 186.161 265.29 185.936C265.217 185.71 265.088 185.502 264.913 185.323C264.738 185.145 264.521 185.002 264.276 184.904C264.032 184.806 263.765 184.756 263.496 184.756H191.232L200.567 224.835Z" fill="#3F3D56"/>
<path d="M210.57 225.328L204.273 184.494L204.982 184.392L211.279 225.227L210.57 225.328Z" fill="#3F3D56"/>
<path d="M245.584 225.015L244.874 224.915L250.987 184.393L251.697 184.493L245.584 225.015Z" fill="#3F3D56"/>
<path d="M228.901 184.443H228.183V225.277H228.901V184.443Z" fill="#3F3D56"/>
<path d="M194.032 195.385L194.03 196.01L263.615 196.157L263.617 195.532L194.032 195.385Z" fill="#3F3D56"/>
<path d="M258.706 214.7L197.574 215.063L197.579 215.688L258.711 215.325L258.706 214.7Z" fill="#3F3D56"/>
<path d="M178.575 178.191C180.759 178.191 182.529 177.351 182.529 176.315C182.529 175.279 180.759 174.439 178.575 174.439C176.392 174.439 174.622 175.279 174.622 176.315C174.622 177.351 176.392 178.191 178.575 178.191Z" fill="#3F3D56"/>
</g>
<defs>
<clipPath id="clip0_72_1931">
<rect width="187.08" height="135.79" fill="white" transform="translate(79 101)"/>
</clipPath>
</defs>
</svg>
