<svg width="350" height="345" viewBox="0 0 350 345" fill="none" xmlns="http://www.w3.org/2000/svg">
<circle opacity="0.03" cx="172.12" cy="168.98" r="128.746" fill="#673AB7"/>
<path d="M332.217 165.069H324.708C322.057 165.069 321.459 166.434 321.131 168.12L319.92 174.061H337.019L335.808 168.12C335.452 166.434 334.867 165.069 332.217 165.069Z" stroke="#673AB7" stroke-width="1.5" stroke-linecap="round" stroke-linejoin="round"/>
<path d="M339.128 183.757C339.242 185.048 338.244 186.163 336.962 186.163H334.953C333.799 186.163 333.642 185.649 333.428 185.033L333.214 184.373C332.915 183.478 332.716 182.862 331.177 182.862H325.705C324.166 182.862 323.938 183.552 323.667 184.373L323.454 185.033C323.254 185.664 323.097 186.163 321.929 186.163H319.92C318.637 186.163 317.626 185.048 317.754 183.757L318.352 177.053C318.509 175.396 318.808 174.046 321.615 174.046H335.252C338.059 174.046 338.358 175.396 338.515 177.053L339.128 183.757Z" stroke="#673AB7" stroke-width="1.5" stroke-linecap="round" stroke-linejoin="round"/>
<path d="M319.906 170.761H318.837" stroke="#673AB7" stroke-width="1.5" stroke-linecap="round" stroke-linejoin="round"/>
<path d="M338.073 170.761H337.005" stroke="#673AB7" stroke-width="1.5" stroke-linecap="round" stroke-linejoin="round"/>
<path d="M322.043 178.462H325.249" stroke="#673AB7" stroke-width="1.5" stroke-linecap="round" stroke-linejoin="round"/>
<path d="M331.661 178.462H334.867" stroke="#673AB7" stroke-width="1.5" stroke-linecap="round" stroke-linejoin="round"/>
<path d="M341.579 166.712C341.978 165.759 341.835 164.468 341.094 163.339C340.368 162.209 339.256 161.578 338.244 161.593" stroke="#673AB7" stroke-width="1.5" stroke-linecap="round" stroke-linejoin="round"/>
<path d="M346.01 168.164C346.609 165.949 346.181 163.236 344.657 160.889C343.132 158.542 340.852 157.104 338.629 156.826" stroke="#673AB7" stroke-width="1.5" stroke-linecap="round" stroke-linejoin="round"/>
<path d="M183.744 19.8756C183.145 20.477 182.803 21.3425 182.889 22.2666C183.017 23.8508 184.428 25.0095 185.966 25.0095H188.674V26.7551C188.674 29.7914 186.266 32.2704 183.316 32.2704H166.958C164.008 32.2704 161.6 29.7914 161.6 26.7551V16.8833C161.6 13.8469 164.008 11.368 166.958 11.368H183.316C186.266 11.368 188.674 13.8469 188.674 16.8833V18.9956H185.795C184.998 18.9956 184.271 19.3182 183.744 19.8756Z" stroke="#673AB7" stroke-width="1.5" stroke-linecap="round" stroke-linejoin="round"/>
<path d="M161.6 18.2034V11.5001C161.6 9.75453 162.64 8.19961 164.222 7.58354L175.536 3.18303C177.303 2.49362 179.198 3.84315 179.198 5.79405V11.368" stroke="#673AB7" stroke-width="1.5" stroke-linecap="round" stroke-linejoin="round"/>
<path d="M190.183 20.492V23.5137C190.183 24.3205 189.556 24.9805 188.758 25.0098H185.965C184.426 25.0098 183.015 23.8511 182.887 22.2669C182.801 21.3428 183.143 20.4773 183.742 19.8759C184.269 19.3185 184.996 18.9958 185.794 18.9958H188.758C189.556 19.0252 190.183 19.6852 190.183 20.492Z" stroke="#673AB7" stroke-width="1.5" stroke-linecap="round" stroke-linejoin="round"/>
<path d="M168.012 17.6021H177.987" stroke="#673AB7" stroke-width="1.5" stroke-linecap="round" stroke-linejoin="round"/>
<path d="M5.133 186.162V161.226C5.133 158.293 7.0424 156.826 9.40778 156.826H20.8072C23.1726 156.826 25.082 158.293 25.082 161.226V186.162H5.133Z" stroke="#673AB7" stroke-width="1.5" stroke-linecap="round" stroke-linejoin="round"/>
<path d="M2.99561 186.162H27.2194" stroke="#673AB7" stroke-width="1.5" stroke-linecap="round" stroke-linejoin="round"/>
<path d="M12.1009 168.56H18.1283C19.6103 168.56 20.8214 167.827 20.8214 165.788V163.984C20.8214 161.945 19.6103 161.212 18.1283 161.212H12.1009C10.619 161.212 9.40778 161.945 9.40778 163.984V165.788C9.40778 167.827 10.619 168.56 12.1009 168.56Z" stroke="#673AB7" stroke-width="1.5" stroke-linecap="round" stroke-linejoin="round"/>
<path d="M9.40778 172.961H13.6826" stroke="#673AB7" stroke-width="1.5" stroke-linecap="round" stroke-linejoin="round"/>
<path d="M25.082 177.376L31.4942 177.361V168.56L28.6443 167.094" stroke="#673AB7" stroke-width="1.5" stroke-linecap="round" stroke-linejoin="round"/>
<path d="M160.888 306.73H163.367C164.906 306.73 166.117 308.094 165.989 309.663L164.806 324.273C164.607 326.664 166.445 328.717 168.782 328.717H183.957C186.009 328.717 187.805 326.987 187.961 324.889L188.731 313.888C188.902 311.453 187.106 309.473 184.727 309.473H166.331" stroke="#673AB7" stroke-width="1.5" stroke-miterlimit="10" stroke-linecap="round" stroke-linejoin="round"/>
<path d="M181.193 336.066C182.177 336.066 182.974 335.245 182.974 334.233C182.974 333.22 182.177 332.399 181.193 332.399C180.209 332.399 179.412 333.22 179.412 334.233C179.412 335.245 180.209 336.066 181.193 336.066Z" stroke="#673AB7" stroke-width="1.5" stroke-miterlimit="10" stroke-linecap="round" stroke-linejoin="round"/>
<path d="M169.794 336.066C170.777 336.066 171.575 335.245 171.575 334.233C171.575 333.22 170.777 332.399 169.794 332.399C168.81 332.399 168.012 333.22 168.012 334.233C168.012 335.245 168.81 336.066 169.794 336.066Z" stroke="#673AB7" stroke-width="1.5" stroke-miterlimit="10" stroke-linecap="round" stroke-linejoin="round"/>
<path d="M170.862 316.997H187.961" stroke="#673AB7" stroke-width="1.5" stroke-miterlimit="10" stroke-linecap="round" stroke-linejoin="round"/>
<path d="M62.1068 276.31C62.1068 274.344 63.7027 272.748 65.6691 272.748V271.323C65.6691 265.623 64.2442 264.198 58.5444 264.198H44.2952C38.5955 264.198 37.1705 265.623 37.1705 271.323V272.035C39.1369 272.035 40.7329 273.631 40.7329 275.598C40.7329 277.564 39.1369 279.16 37.1705 279.16V279.872C37.1705 285.572 38.5955 286.997 44.2952 286.997H58.5444C64.2442 286.997 65.6691 285.572 65.6691 279.872C63.7027 279.872 62.1068 278.277 62.1068 276.31Z" stroke="#673AB7" stroke-width="1.5" stroke-linecap="round" stroke-linejoin="round"/>
<path d="M48.57 264.198L48.57 286.997" stroke="#673AB7" stroke-width="1.5" stroke-linecap="round" stroke-linejoin="round" stroke-dasharray="5 5"/>
<path d="M282.325 281.125L299.353 264.097" stroke="#673AB7" stroke-width="1.5" stroke-miterlimit="10" stroke-linecap="round" stroke-linejoin="round"/>
<path d="M292.544 284.545L294.254 282.835" stroke="#673AB7" stroke-width="1.5" stroke-miterlimit="10" stroke-linecap="round" stroke-linejoin="round"/>
<path d="M296.38 280.711L299.786 277.306" stroke="#673AB7" stroke-width="1.5" stroke-miterlimit="10" stroke-linecap="round" stroke-linejoin="round"/>
<path d="M281.857 273.088L291.319 263.627C294.34 260.606 295.85 260.592 298.843 263.584L305.839 270.58C308.831 273.573 308.817 275.083 305.796 278.104L296.335 287.566C293.314 290.586 291.803 290.601 288.811 287.608L281.815 280.612C278.822 277.62 278.822 276.123 281.857 273.088Z" stroke="#673AB7" stroke-width="1.5" stroke-linecap="round" stroke-linejoin="round"/>
<path d="M279.576 289.845H308.074" stroke="#673AB7" stroke-width="1.5" stroke-linecap="round" stroke-linejoin="round"/>
<path d="M47.1878 79.1866L50.5079 76.3937C51.0066 75.9663 51.833 75.9663 52.3318 76.3937L55.6518 79.1866C56.4213 79.5713 57.3618 79.1866 57.6467 78.3601L58.2737 76.465C58.4305 76.009 58.2737 75.3393 57.9317 74.9973L54.6971 71.7485C54.4549 71.5205 54.2697 71.0645 54.2697 70.7368V66.6757C54.2697 66.0773 54.7114 65.7923 55.2671 66.0203L62.2635 69.0411C63.3607 69.5113 64.2584 68.9271 64.2584 67.7302V65.892C64.2584 64.9373 63.5459 63.8401 62.6625 63.4696L54.6971 60.0356C54.4692 59.9358 54.2697 59.6366 54.2697 59.3801V55.1053C54.2697 53.7659 53.2865 52.1842 52.0895 51.5715C51.662 51.3578 51.1633 51.3578 50.7358 51.5715C49.5389 52.1842 48.5557 53.7801 48.5557 55.1196V59.3944C48.5557 59.6508 48.3562 59.9501 48.1282 60.0498L40.1771 63.4839C39.2937 63.8401 38.5812 64.9373 38.5812 65.892V67.7302C38.5812 68.9271 39.4789 69.5113 40.5761 69.0411L47.5725 66.0203C48.114 65.778 48.57 66.0773 48.57 66.6757V70.7368C48.57 71.0645 48.3847 71.5205 48.1567 71.7485L44.9221 74.9973C44.5802 75.3393 44.4234 75.9948 44.5802 76.465L45.2071 78.3601C45.4636 79.1866 46.4041 79.5856 47.1878 79.1866Z" stroke="#673AB7" stroke-width="1.5" stroke-linecap="round" stroke-linejoin="round"/>
<path d="M284.605 72.1684V68.6061C284.605 65.058 287.469 62.1939 291.017 62.1939H294.58" stroke="#673AB7" stroke-width="1.5" stroke-linecap="round" stroke-linejoin="round"/>
<path d="M303.129 62.1939H306.691C310.239 62.1939 313.104 65.058 313.104 68.6061V72.1684" stroke="#673AB7" stroke-width="1.5" stroke-linecap="round" stroke-linejoin="round"/>
<path d="M313.104 82.1429V84.2803C313.104 87.8283 310.239 90.6924 306.691 90.6924H304.554" stroke="#673AB7" stroke-width="1.5" stroke-linecap="round" stroke-linejoin="round"/>
<path d="M294.58 90.6924H291.017C287.469 90.6924 284.605 87.8283 284.605 84.2803V80.718" stroke="#673AB7" stroke-width="1.5" stroke-linecap="round" stroke-linejoin="round"/>
<path d="M296.717 69.3185V72.1684C296.717 73.5933 296.004 74.3058 294.58 74.3058H291.73C290.305 74.3058 289.592 73.5933 289.592 72.1684V69.3185C289.592 67.8936 290.305 67.1812 291.73 67.1812H294.58C296.004 67.1812 296.717 67.8936 296.717 69.3185Z" stroke="#673AB7" stroke-width="1.5" stroke-linecap="round" stroke-linejoin="round"/>
<path d="M308.116 69.3185V72.1684C308.116 73.5933 307.404 74.3058 305.979 74.3058H303.129C301.704 74.3058 300.992 73.5933 300.992 72.1684V69.3185C300.992 67.8936 301.704 67.1812 303.129 67.1812H305.979C307.404 67.1812 308.116 67.8936 308.116 69.3185Z" stroke="#673AB7" stroke-width="1.5" stroke-linecap="round" stroke-linejoin="round"/>
<path d="M296.717 80.718V83.5678C296.717 84.9927 296.004 85.7052 294.58 85.7052H291.73C290.305 85.7052 289.592 84.9927 289.592 83.5678V80.718C289.592 79.293 290.305 78.5806 291.73 78.5806H294.58C296.004 78.5806 296.717 79.293 296.717 80.718Z" stroke="#673AB7" stroke-width="1.5" stroke-linecap="round" stroke-linejoin="round"/>
<path d="M308.116 80.718V83.5678C308.116 84.9927 307.404 85.7052 305.979 85.7052H303.129C301.704 85.7052 300.992 84.9927 300.992 83.5678V80.718C300.992 79.293 301.704 78.5806 303.129 78.5806H305.979C307.404 78.5806 308.116 79.293 308.116 80.718Z" stroke="#673AB7" stroke-width="1.5" stroke-linecap="round" stroke-linejoin="round"/>
<circle opacity="0.4" cx="106.665" cy="304" r="6" fill="#673AB7"/>
<circle opacity="0.4" cx="103.665" cy="39" r="6" fill="#673AB7"/>
<circle opacity="0.4" cx="239.475" cy="304" r="6" fill="#673AB7"/>
<circle opacity="0.4" cx="312.901" cy="226.277" r="6" fill="#673AB7"/>
<circle opacity="0.4" cx="34.1924" cy="226.277" r="6" fill="#673AB7"/>
<circle opacity="0.4" cx="312.901" cy="122.676" r="6" fill="#673AB7"/>
<circle opacity="0.4" cx="33.1924" cy="122.676" r="6" fill="#673AB7"/>
<circle opacity="0.4" cx="239.475" cy="39" r="6" fill="#673AB7"/>
<g clip-path="url(#clip0_128_1794)">
<path d="M99.8738 209.63C95.8549 209.63 91.9683 208.154 88.914 205.469C87.8951 204.572 86.8095 203.013 85.6873 200.836C84.9713 199.433 84.5702 197.883 84.5136 196.3C84.457 194.717 84.7464 193.141 85.3605 191.688C84.7686 192.307 84.1139 192.859 83.4076 193.335L83.0506 193.579L83.03 193.139C83.0164 192.853 83.0096 192.568 83.0096 192.291C83.0096 190.662 84.2079 189.009 83.6553 187.504C81.3259 181.157 73.9378 174.851 84.6454 165.029C85.6359 164.121 84.3128 162.304 84.3128 160.929C84.3128 147.458 98.5496 127.249 108.08 136.498C113.643 141.896 125.234 145.731 130.645 153.24L130.717 153.463L130.506 153.551C129.425 154.018 128.286 154.329 127.122 154.476C128.363 154.736 129.629 154.845 130.895 154.801L131.091 154.794L131.139 154.99C131.61 156.933 131.848 158.927 131.848 160.929L131.847 161.146C131.843 162.666 132.15 164.171 132.749 165.561C133.348 166.951 134.225 168.196 135.324 169.215C137.059 170.841 138.445 172.821 139.395 175.029C140.344 177.237 140.836 179.624 140.838 182.038C140.838 184.894 138.95 188.643 137.367 191.285C136.965 191.958 136.421 192.529 135.774 192.954C135.128 193.38 134.396 193.65 133.633 193.744C132.911 193.837 132.178 193.766 131.485 193.536C130.792 193.306 130.157 192.923 129.625 192.412C130.374 193.962 131.351 195.384 132.521 196.628L132.737 196.857L132.469 197.018C129.891 198.564 126.959 199.378 123.974 199.377L123.8 199.376C119.268 199.376 114.967 201.181 111.999 204.328C110.423 205.998 108.538 207.326 106.456 208.237C104.374 209.147 102.136 209.621 99.8738 209.63Z" fill="#CAC7CE"/>
<path d="M93.9269 236.79C93.8539 236.79 93.7834 236.763 93.7284 236.714C93.6733 236.664 93.6373 236.596 93.627 236.522C93.6141 236.429 92.3521 227.071 93.4856 214.633C94.5323 203.146 97.894 186.602 107.964 173.014C107.988 172.981 108.018 172.954 108.053 172.933C108.087 172.913 108.125 172.899 108.165 172.894C108.204 172.888 108.245 172.891 108.283 172.901C108.322 172.911 108.358 172.93 108.389 172.954C108.421 172.979 108.448 173.01 108.468 173.046C108.488 173.081 108.501 173.12 108.506 173.161C108.512 173.202 108.509 173.243 108.499 173.283C108.489 173.322 108.471 173.359 108.447 173.392C98.4634 186.862 95.1289 203.286 94.0895 214.691C92.9626 227.056 94.2148 236.342 94.2275 236.434C94.2336 236.478 94.2304 236.524 94.2181 236.566C94.2058 236.609 94.1846 236.649 94.1561 236.683C94.1276 236.716 94.0924 236.743 94.0529 236.762C94.0133 236.78 93.9704 236.79 93.9269 236.79Z" fill="#3F3D56"/>
<path d="M103.122 191.836C103.058 191.836 102.995 191.816 102.943 191.777C102.892 191.738 102.853 191.684 102.833 191.621C102.813 191.558 102.813 191.491 102.833 191.428C102.853 191.366 102.891 191.311 102.943 191.272C105.813 189.275 108.912 187.653 112.171 186.443C117.262 184.526 125.004 182.789 132.975 185.397C133.013 185.409 133.048 185.429 133.078 185.456C133.109 185.482 133.134 185.514 133.152 185.551C133.17 185.587 133.182 185.627 133.185 185.668C133.188 185.708 133.184 185.75 133.172 185.789C133.16 185.828 133.14 185.864 133.115 185.895C133.089 185.926 133.057 185.952 133.022 185.971C132.987 185.99 132.948 186.001 132.908 186.005C132.869 186.008 132.829 186.003 132.791 185.991C124.984 183.437 117.382 185.145 112.38 187.028C109.173 188.218 106.123 189.813 103.3 191.777C103.248 191.816 103.186 191.836 103.122 191.836Z" fill="#3F3D56"/>
<path d="M225.116 209.63C221.097 209.63 217.21 208.154 214.156 205.469C213.137 204.572 212.051 203.013 210.929 200.836C210.213 199.433 209.812 197.883 209.755 196.3C209.699 194.717 209.988 193.141 210.602 191.688C210.01 192.307 209.356 192.859 208.649 193.335L208.292 193.579L208.272 193.139C208.258 192.853 208.251 192.568 208.251 192.291C208.251 190.662 209.45 189.009 208.897 187.504C206.568 181.157 199.18 174.851 209.887 165.029C210.878 164.12 209.555 162.304 209.555 160.929C209.555 147.458 228.073 124.151 233.322 136.498C239.795 151.724 250.947 150.095 255.887 153.24L255.959 153.463L255.748 153.551C254.666 154.018 253.528 154.329 252.363 154.476C253.604 154.736 254.871 154.845 256.137 154.801L256.333 154.794L256.381 154.99C256.852 156.933 257.09 158.927 257.09 160.929L257.089 161.146C257.084 162.666 257.392 164.171 257.991 165.561C258.59 166.951 259.467 168.196 260.566 169.215C262.301 170.841 263.687 172.821 264.636 175.029C265.586 177.237 266.078 179.624 266.08 182.038C266.08 184.894 264.192 188.643 262.608 191.285C262.207 191.958 261.662 192.529 261.016 192.954C260.369 193.38 259.637 193.65 258.875 193.743C258.153 193.837 257.419 193.766 256.727 193.536C256.034 193.306 255.399 192.922 254.867 192.412C255.616 193.962 256.593 195.384 257.763 196.628L257.979 196.857L257.711 197.018C255.132 198.564 252.201 199.378 249.216 199.377L249.041 199.376C244.51 199.376 240.208 201.181 237.24 204.328C235.664 205.997 233.78 207.326 231.698 208.237C229.616 209.147 227.378 209.621 225.116 209.63Z" fill="#CAC7CE"/>
<path d="M219.169 236.79C219.096 236.79 219.025 236.763 218.97 236.714C218.915 236.664 218.879 236.596 218.869 236.522C218.856 236.429 217.594 227.071 218.727 214.633C219.774 203.146 223.136 186.602 233.206 173.014C233.23 172.981 233.26 172.954 233.295 172.933C233.329 172.913 233.367 172.899 233.407 172.894C233.446 172.888 233.486 172.891 233.525 172.901C233.563 172.911 233.6 172.93 233.631 172.954C233.663 172.979 233.69 173.01 233.71 173.046C233.73 173.081 233.743 173.12 233.748 173.161C233.753 173.202 233.751 173.243 233.741 173.283C233.73 173.322 233.713 173.359 233.688 173.392C223.705 186.862 220.371 203.286 219.331 214.691C218.204 227.056 219.456 236.342 219.469 236.434C219.475 236.478 219.472 236.524 219.46 236.566C219.448 236.609 219.426 236.649 219.398 236.683C219.369 236.716 219.334 236.743 219.295 236.762C219.255 236.78 219.212 236.79 219.169 236.79Z" fill="#3F3D56"/>
<path d="M227.531 192.478C227.467 192.478 227.405 192.457 227.353 192.419C227.301 192.38 227.263 192.325 227.243 192.263C227.223 192.2 227.223 192.133 227.243 192.07C227.262 192.007 227.301 191.953 227.353 191.914C230.222 189.917 233.322 188.295 236.581 187.084C241.672 185.168 249.414 183.431 257.384 186.039C257.422 186.051 257.457 186.071 257.488 186.097C257.518 186.124 257.543 186.156 257.562 186.192C257.58 186.229 257.591 186.269 257.594 186.309C257.598 186.35 257.593 186.391 257.581 186.43C257.569 186.469 257.55 186.505 257.524 186.537C257.498 186.568 257.467 186.594 257.432 186.613C257.396 186.631 257.358 186.643 257.318 186.646C257.278 186.65 257.238 186.645 257.2 186.633C249.393 184.078 241.792 185.787 236.789 187.67C233.583 188.86 230.533 190.455 227.709 192.418C227.658 192.457 227.595 192.478 227.531 192.478Z" fill="#3F3D56"/>
<path d="M213.651 156.934C213.646 156.868 213.662 156.802 213.695 156.746C213.729 156.69 213.779 156.647 213.839 156.622C213.898 156.597 213.964 156.592 214.026 156.608C214.088 156.624 214.144 156.66 214.185 156.71C216.329 159.509 218.126 162.57 219.535 165.825C221.761 170.908 224.004 178.722 222.047 187.083C222.038 187.123 222.021 187.161 221.998 187.194C221.975 187.227 221.945 187.255 221.911 187.276C221.877 187.298 221.839 187.312 221.8 187.318C221.761 187.325 221.72 187.323 221.682 187.314C221.643 187.304 221.606 187.287 221.574 187.263C221.542 187.238 221.515 187.208 221.494 187.173C221.473 187.138 221.459 187.099 221.453 187.059C221.447 187.018 221.448 186.977 221.458 186.937C223.374 178.748 221.169 171.075 218.982 166.081C217.597 162.879 215.83 159.866 213.721 157.112C213.68 157.062 213.655 156.999 213.651 156.934Z" fill="#3F3D56"/>
<path d="M89.0331 155.009C89.0284 154.943 89.0441 154.877 89.0779 154.821C89.1117 154.765 89.1618 154.722 89.2212 154.697C89.2805 154.672 89.3459 154.667 89.4081 154.683C89.4703 154.699 89.5261 154.734 89.5674 154.785C91.7113 157.583 93.5083 160.645 94.9173 163.9C97.143 168.983 99.386 176.797 97.4299 185.158C97.4206 185.198 97.4038 185.235 97.3803 185.269C97.3569 185.302 97.3274 185.33 97.2934 185.351C97.2595 185.373 97.2217 185.387 97.1824 185.393C97.143 185.4 97.1028 185.398 97.0641 185.389C97.0253 185.379 96.9888 185.362 96.9566 185.338C96.9244 185.313 96.8971 185.283 96.8763 185.248C96.8555 185.213 96.8416 185.174 96.8354 185.134C96.8292 185.093 96.8308 185.052 96.8402 185.012C98.756 176.822 96.5511 169.15 94.3641 164.156C92.9791 160.954 91.212 157.941 89.1037 155.187C89.0624 155.137 89.0376 155.074 89.0331 155.009Z" fill="#3F3D56"/>
<path d="M172.744 123.486C172.382 123.105 171.937 122.818 171.446 122.649C170.954 122.479 170.43 122.433 169.918 122.514C169.406 122.594 168.92 122.799 168.5 123.112C168.08 123.424 167.739 123.835 167.504 124.31C162.57 127.841 159.441 132.572 158.261 138.598L149.507 130.432C149.609 129.749 149.499 129.05 149.191 128.435C148.884 127.821 148.395 127.322 147.794 127.011C147.194 126.7 146.513 126.592 145.85 126.703C145.186 126.814 144.574 127.139 144.101 127.63C143.628 128.121 143.318 128.753 143.216 129.436C143.114 130.12 143.225 130.819 143.534 131.433C143.842 132.047 144.331 132.545 144.932 132.856C145.533 133.166 146.214 133.273 146.877 133.161C148.484 135.966 155.938 148.369 160.539 145.529C164.406 143.142 171.274 131.317 173.291 127.395C173.614 126.767 173.735 126.051 173.637 125.349C173.539 124.647 173.226 123.994 172.744 123.486Z" fill="#FFB6B6"/>
<path d="M173.024 128.902C173.464 127.677 173.816 126.327 173.435 125.081C173.015 123.711 171.727 122.731 170.35 122.492C168.973 122.253 167.541 122.68 166.357 123.442C165.173 124.203 164.21 125.279 163.354 126.414L163.583 126.039C162.47 127.539 161.356 129.039 160.242 130.54C163.069 132.559 165.896 134.579 168.723 136.598C170.566 134.299 172.02 131.697 173.024 128.902Z" fill="#673AB7"/>
<path d="M160.831 232.251L156.782 232.25L154.855 216.191L160.832 216.191L160.831 232.251Z" fill="#FFB6B6"/>
<path d="M160.974 236.594L148.521 236.594V236.432C148.521 235.11 149.032 233.842 149.941 232.908C150.85 231.973 152.082 231.448 153.368 231.448H153.368L155.643 229.674L159.887 231.449L160.974 231.449L160.974 236.594Z" fill="#2F2E41"/>
<path d="M220.233 173.124L221.932 176.903L208.565 185.443L206.056 179.865L220.233 173.124Z" fill="#FFB6B6"/>
<path d="M224.007 171.167L229.235 182.788L229.092 182.856C227.925 183.41 226.592 183.466 225.385 183.01C224.178 182.554 223.197 181.624 222.658 180.425L222.658 180.425L220.136 179.047L219.921 174.342L219.465 173.327L224.007 171.167Z" fill="#2F2E41"/>
<path d="M130.602 109.065C131.433 108.808 131.967 108.118 131.793 107.523C131.619 106.929 130.805 106.654 129.973 106.911C129.141 107.168 128.608 107.858 128.782 108.453C128.955 109.048 129.77 109.322 130.602 109.065Z" fill="#673AB7" fill-opacity="0.4"/>
<path d="M140.867 108.538C141.699 108.282 142.232 107.592 142.059 106.997C141.885 106.402 141.07 106.128 140.239 106.384C139.407 106.641 138.874 107.331 139.047 107.926C139.221 108.521 140.036 108.795 140.867 108.538Z" fill="#3F3D56"/>
<path d="M129.045 117.91C129.876 117.653 130.41 116.963 130.236 116.368C130.062 115.774 129.247 115.499 128.416 115.756C127.584 116.013 127.051 116.703 127.224 117.298C127.398 117.892 128.213 118.167 129.045 117.91Z" fill="#FF6584"/>
<path d="M125.807 121.607C126.184 121.547 126.421 121.046 126.336 120.489C126.252 119.931 125.878 119.528 125.5 119.589C125.123 119.649 124.886 120.15 124.971 120.708C125.055 121.265 125.429 121.668 125.807 121.607Z" fill="#673AB7" fill-opacity="0.4"/>
<path d="M125.242 128.261C125.619 128.2 125.856 127.699 125.772 127.142C125.687 126.584 125.313 126.182 124.936 126.242C124.558 126.303 124.321 126.803 124.406 127.361C124.49 127.918 124.865 128.321 125.242 128.261Z" fill="#3F3D56"/>
<path d="M135.207 115.184C135.584 115.124 135.822 114.623 135.737 114.065C135.652 113.508 135.278 113.105 134.901 113.165C134.524 113.226 134.287 113.727 134.371 114.284C134.456 114.842 134.83 115.245 135.207 115.184Z" fill="#673AB7" fill-opacity="0.4"/>
<path d="M129.955 113.419C130.332 113.359 130.57 112.858 130.485 112.3C130.401 111.743 130.026 111.34 129.649 111.4C129.272 111.461 129.035 111.962 129.119 112.519C129.204 113.077 129.578 113.48 129.955 113.419Z" fill="#FF6584"/>
<path d="M136.094 107.742C136.471 107.682 136.708 107.181 136.623 106.624C136.539 106.066 136.165 105.663 135.787 105.724C135.41 105.784 135.173 106.285 135.258 106.843C135.342 107.4 135.716 107.803 136.094 107.742Z" fill="#3F3D56"/>
<path d="M193.53 213.909C194.389 213.781 195.015 213.179 194.928 212.564C194.842 211.949 194.074 211.555 193.215 211.684C192.356 211.813 191.73 212.415 191.817 213.029C191.904 213.644 192.671 214.038 193.53 213.909Z" fill="#673AB7" fill-opacity="0.4"/>
<path d="M183.3 212.883C184.16 212.755 184.786 212.152 184.699 211.538C184.612 210.923 183.845 210.529 182.985 210.658C182.126 210.786 181.5 211.389 181.587 212.003C181.674 212.618 182.441 213.012 183.3 212.883Z" fill="#3F3D56"/>
<path d="M196.331 205.395C197.191 205.266 197.817 204.664 197.73 204.049C197.643 203.435 196.876 203.041 196.017 203.169C195.157 203.298 194.531 203.9 194.618 204.515C194.705 205.129 195.472 205.523 196.331 205.395Z" fill="#FF6584"/>
<path d="M199.762 202.043C200.144 202.04 200.45 201.58 200.446 201.016C200.441 200.452 200.129 199.997 199.747 200C199.365 200.003 199.059 200.463 199.063 201.027C199.067 201.591 199.38 202.046 199.762 202.043Z" fill="#673AB7" fill-opacity="0.4"/>
<path d="M201.269 195.547C201.651 195.544 201.957 195.084 201.953 194.52C201.949 193.956 201.636 193.501 201.254 193.504C200.873 193.507 200.567 193.966 200.571 194.53C200.575 195.095 200.888 195.55 201.269 195.547Z" fill="#3F3D56"/>
<path d="M189.547 206.98C189.929 206.977 190.235 206.517 190.231 205.953C190.227 205.389 189.914 204.934 189.532 204.937C189.15 204.94 188.844 205.399 188.849 205.964C188.853 206.528 189.165 206.983 189.547 206.98Z" fill="#673AB7" fill-opacity="0.4"/>
<path d="M194.49 209.517C194.872 209.515 195.178 209.055 195.174 208.491C195.17 207.926 194.857 207.472 194.475 207.474C194.094 207.477 193.787 207.937 193.792 208.501C193.796 209.066 194.109 209.52 194.49 209.517Z" fill="#FF6584"/>
<path d="M187.609 214.208C187.991 214.205 188.297 213.745 188.293 213.181C188.289 212.617 187.976 212.162 187.594 212.165C187.212 212.168 186.906 212.627 186.911 213.192C186.915 213.756 187.227 214.211 187.609 214.208Z" fill="#3F3D56"/>
<path d="M167.2 159.662L164.739 162.761C164.794 163.6 164.537 164.08 163.773 163.977C163.773 163.977 163.887 165.514 162.951 165.013C162.014 164.511 162.244 165.902 162.244 165.902L161.544 166.784C161.544 166.784 161.522 168.282 160.832 167.68C160.142 167.078 159.92 168.828 159.92 168.828L159.042 169.934L150.088 181.207L155.107 222.642L160.974 222.264L162.404 185.939C162.768 184.937 163.322 184.412 164.168 184.627C164.548 184.712 164.769 184.478 164.909 184.076L165.583 183.575L174.411 177.012L186.072 197.558L215.065 181.837L212.36 176.49L192.02 183.408L191.487 176.866C190.792 176.45 190.909 175.953 191.369 175.421L191.236 173.788C191.926 173.353 191.584 172.664 191.085 171.935C190.043 171.144 190.146 170.244 190.869 169.283C190.869 169.283 191.783 156.994 187.353 155.299C182.924 153.603 167.2 159.662 167.2 159.662Z" fill="#2F2E41"/>
<path d="M175.895 119.325L170.336 119.593L167.423 123.871C165.395 128.458 164.839 133.588 165.833 138.522L167.839 148.469L167.308 155.846C165.884 157.027 165.766 158.415 167.007 160.02C165.479 165.442 178.485 163.002 190.516 161.089C190.557 158.506 189.906 155.875 188.227 153.175L189.846 131.623L183.859 124.299L179.276 121.196L175.895 119.325Z" fill="#673AB7"/>
<path d="M181.097 125.237C180.652 125.511 180.277 125.89 180.004 126.342C179.73 126.795 179.566 127.308 179.524 127.839C179.482 128.37 179.563 128.904 179.762 129.396C179.961 129.888 180.271 130.324 180.667 130.669C181.337 135.142 185.503 139.452 192.054 143.214L182.305 150.086C181.682 149.825 180.995 149.775 180.343 149.94C179.69 150.106 179.105 150.48 178.672 151.009C178.239 151.538 177.98 152.194 177.932 152.883C177.884 153.573 178.05 154.26 178.405 154.847C178.761 155.434 179.288 155.889 179.911 156.149C180.534 156.409 181.221 156.459 181.873 156.292C182.526 156.126 183.11 155.751 183.543 155.222C183.975 154.693 184.234 154.036 184.281 153.347C187.306 152.386 200.764 147.793 199.139 142.535C197.773 138.115 188.167 128.515 184.921 125.591C184.402 125.124 183.753 124.837 183.065 124.773C182.378 124.71 181.689 124.872 181.097 125.237Z" fill="#FFB6B6"/>
<path d="M170.494 145.278C169.846 145.277 169.223 145.025 168.747 144.572C168.272 144.119 167.98 143.499 167.929 142.835L167.584 138.31C167.53 137.609 167.75 136.915 168.194 136.381C168.638 135.846 169.27 135.515 169.952 135.46L178.501 134.771C179.183 134.716 179.858 134.942 180.377 135.398C180.897 135.855 181.219 136.505 181.272 137.206L181.618 141.731C181.671 142.432 181.452 143.125 181.007 143.66C180.563 144.194 179.931 144.525 179.249 144.58L170.7 145.269C170.631 145.275 170.563 145.278 170.494 145.278Z" fill="#F2F2F2"/>
<path d="M171.725 118.241C175.745 118.241 179.003 114.89 179.003 110.758C179.003 106.625 175.745 103.275 171.725 103.275C167.705 103.275 164.447 106.625 164.447 110.758C164.447 114.89 167.705 118.241 171.725 118.241Z" fill="#FFB6B6"/>
<path d="M179.287 105.995C178.942 105.535 178.547 105.112 178.247 104.62C177.958 104.146 177.76 103.614 177.435 103.166C176.47 101.841 174.678 101.57 173.077 101.405C172.019 101.296 170.962 101.187 169.905 101.078C169.31 100.992 168.708 100.981 168.111 101.045C167.543 101.136 167.004 101.36 166.534 101.701C166.065 102.042 165.679 102.49 165.406 103.01C165.096 103.613 164.889 104.364 164.285 104.645C164.001 104.738 163.711 104.812 163.417 104.867C163.132 104.958 162.845 105.193 162.856 105.5C162.875 106.068 163.851 106.394 163.613 106.907C163.403 107.361 162.561 107.039 162.442 107.723C162.425 107.822 162.43 107.923 162.454 108.02C162.478 108.118 162.521 108.208 162.582 108.287C162.853 108.645 163.299 108.738 163.716 108.816L162.974 109.907C165.376 110.921 168.049 111.028 170.519 110.208C170.888 110.082 171.281 110.054 171.664 110.125C172.046 110.197 172.405 110.366 172.707 110.617C173.009 110.868 173.245 111.193 173.394 111.562C173.542 111.931 173.598 112.332 173.556 112.73L173.553 112.761C173.537 112.88 173.553 113.002 173.599 113.114C173.645 113.225 173.719 113.321 173.814 113.392C174.19 113.655 174.573 113.286 174.743 112.921C174.917 112.55 175.032 112.1 175.452 111.969C175.623 111.925 175.804 111.939 175.967 112.009C176.13 112.079 176.267 112.202 176.356 112.359C176.683 112.886 176.548 113.515 176.361 114.073C175.926 115.36 175.22 116.532 174.293 117.506C175.874 117.399 175.412 117.562 176.993 117.454L177.434 117.525C178.492 116.846 179.017 115.555 179.296 114.305C179.929 111.47 181.014 108.3 179.287 105.995Z" fill="#2F2E41"/>
<path d="M185.458 124.624C184.407 123.891 183.217 123.215 181.949 123.296C180.555 123.385 179.32 124.435 178.764 125.753C178.207 127.07 178.267 128.601 178.701 129.966C179.135 131.331 179.919 132.55 180.785 133.677L180.486 133.358C181.635 134.83 182.784 136.302 183.933 137.774C186.519 135.438 189.105 133.102 191.691 130.765C189.962 128.374 187.855 126.298 185.458 124.624Z" fill="#673AB7"/>
<path d="M171.523 236.201L171.526 236.051C171.592 233.551 172.186 231.096 173.268 228.856C174.35 226.616 175.893 224.645 177.791 223.08C178.862 222.211 180.035 221.484 181.283 220.916L181.402 220.862L181.422 220.994C181.664 222.573 182.047 224.184 182.225 224.899L183.42 220.105L183.553 220.065C184.162 219.882 184.81 219.889 185.415 220.088C186.019 220.287 186.552 220.667 186.945 221.18C187.354 221.692 187.605 222.32 187.665 222.98C187.724 223.641 187.59 224.305 187.28 224.887C187.001 225.42 186.728 225.977 186.463 226.515C185.553 228.365 184.612 230.278 183.241 231.765C182.192 232.879 180.915 233.739 179.501 234.281C178.088 234.823 176.575 235.033 175.073 234.897L171.523 236.201Z" fill="#F2F2F2"/>
<path d="M188.409 236.633L131.874 236.699C131.841 236.699 131.809 236.692 131.779 236.68C131.749 236.667 131.722 236.648 131.699 236.624C131.676 236.601 131.657 236.573 131.645 236.542C131.633 236.511 131.626 236.478 131.626 236.444C131.626 236.411 131.633 236.378 131.645 236.347C131.657 236.316 131.676 236.288 131.699 236.264C131.722 236.24 131.749 236.222 131.779 236.209C131.809 236.196 131.841 236.19 131.874 236.19L188.409 236.124C188.475 236.124 188.538 236.151 188.585 236.198C188.631 236.246 188.657 236.311 188.657 236.378C188.657 236.446 188.631 236.511 188.585 236.559C188.538 236.606 188.475 236.633 188.409 236.633Z" fill="#CACACA"/>
<path d="M241.252 236.633L208.642 236.699C208.609 236.699 208.577 236.692 208.547 236.68C208.517 236.667 208.489 236.648 208.466 236.624C208.443 236.601 208.425 236.573 208.413 236.542C208.4 236.511 208.394 236.478 208.394 236.444C208.394 236.411 208.4 236.378 208.413 236.347C208.425 236.316 208.443 236.288 208.466 236.264C208.489 236.24 208.517 236.222 208.547 236.209C208.577 236.196 208.609 236.19 208.642 236.19L241.252 236.124C241.318 236.124 241.381 236.151 241.427 236.198C241.474 236.246 241.5 236.311 241.5 236.378C241.5 236.446 241.474 236.511 241.427 236.559C241.381 236.606 241.318 236.633 241.252 236.633Z" fill="#CACACA"/>
<path d="M111.642 236.633L81.1114 236.699C81.0789 236.699 81.0467 236.692 81.0166 236.68C80.9866 236.667 80.9592 236.648 80.9362 236.624C80.9132 236.601 80.895 236.573 80.8826 236.542C80.8701 236.511 80.8637 236.478 80.8637 236.444C80.8637 236.411 80.8701 236.378 80.8826 236.347C80.895 236.316 80.9132 236.288 80.9362 236.264C80.9592 236.24 80.9866 236.222 81.0166 236.209C81.0467 236.196 81.0789 236.19 81.1114 236.19L111.642 236.124C111.674 236.124 111.707 236.13 111.737 236.143C111.767 236.156 111.794 236.174 111.817 236.198C111.84 236.222 111.859 236.25 111.871 236.281C111.884 236.312 111.89 236.345 111.89 236.378C111.89 236.412 111.884 236.445 111.871 236.476C111.859 236.507 111.84 236.535 111.817 236.559C111.794 236.582 111.767 236.601 111.737 236.614C111.707 236.627 111.674 236.633 111.642 236.633Z" fill="#CACACA"/>
<path d="M144.71 122.447C144.59 122.447 144.471 122.473 144.361 122.522C144.251 122.572 144.153 122.644 144.071 122.735C143.99 122.826 143.928 122.933 143.889 123.049C143.85 123.166 143.835 123.29 143.845 123.413C144.731 127.708 145.121 131.805 144.821 135.624C144.84 135.847 144.939 136.055 145.099 136.206C145.259 136.358 145.468 136.442 145.686 136.444H151.286C151.504 136.442 151.713 136.358 151.873 136.206C152.033 136.055 152.133 135.847 152.152 135.624C151.699 131.772 152.178 127.658 153.128 123.413C153.138 123.29 153.123 123.166 153.084 123.049C153.045 122.933 152.982 122.826 152.901 122.735C152.82 122.644 152.721 122.572 152.611 122.522C152.501 122.473 152.383 122.447 152.263 122.447H144.71Z" fill="#673AB7"/>
<path d="M153.576 124.075L153.158 122.034C153.12 121.849 153.022 121.682 152.878 121.563C152.735 121.443 152.556 121.378 152.372 121.378H149.763C149.753 121.342 149.737 121.309 149.714 121.28L149.425 120.907C149.397 120.872 149.363 120.844 149.323 120.824C149.284 120.805 149.241 120.795 149.197 120.795H147.586C147.543 120.795 147.5 120.805 147.46 120.824C147.421 120.844 147.386 120.872 147.359 120.907L147.069 121.28C147.047 121.309 147.03 121.342 147.02 121.378H144.601C144.416 121.378 144.237 121.443 144.094 121.563C143.951 121.682 143.852 121.849 143.814 122.034L143.396 124.075C143.372 124.195 143.373 124.32 143.402 124.439C143.43 124.559 143.483 124.67 143.559 124.766C143.634 124.861 143.729 124.938 143.837 124.991C143.945 125.044 144.063 125.071 144.183 125.071C146.915 125.962 149.784 125.962 152.79 125.071C152.909 125.071 153.027 125.044 153.135 124.991C153.243 124.938 153.338 124.861 153.414 124.766C153.489 124.67 153.543 124.559 153.571 124.439C153.599 124.32 153.601 124.195 153.576 124.075Z" fill="#3F3D56"/>
</g>
<defs>
<clipPath id="clip0_128_1794">
<rect width="187.08" height="135.79" fill="white" transform="translate(79 101)"/>
</clipPath>
</defs>
</svg>
