<svg width="349" height="345" viewBox="0 0 349 345" fill="none" xmlns="http://www.w3.org/2000/svg">
<circle opacity="0.03" cx="171.974" cy="168.98" r="128.746" fill="#673AB7"/>
<g clip-path="url(#clip0_128_1140)">
<path opacity="0.5" d="M170.676 235.797H163.489V180.105H169.334C169.617 180.105 169.888 180.218 170.089 180.419C170.29 180.62 170.403 180.893 170.405 181.178L170.676 235.797Z" fill="#673AB7"/>
<path d="M164.161 236.091H86.9843V196.429H164.161V236.091Z" fill="white"/>
<path opacity="0.2" d="M133.742 235.944H87.1308V196.577H164.014V205.463C164.005 213.545 160.813 221.292 155.138 227.006C149.462 232.721 141.768 235.935 133.742 235.944Z" fill="#673AB7"/>
<path d="M169.505 181.687C169.466 181.761 169.436 181.839 169.415 181.92L166.754 192.248L163.868 197.752H87.2773V196.382L91.6378 192.248L96.7246 182.451C96.9492 182.019 97.244 181.627 97.597 181.293C98.4025 180.53 99.4667 180.105 100.573 180.105H168.558C168.743 180.105 168.924 180.153 169.085 180.244C169.246 180.336 169.38 180.467 169.476 180.627C169.571 180.786 169.624 180.967 169.629 181.153C169.634 181.339 169.591 181.523 169.505 181.687Z" fill="#E5F6F0"/>
<path d="M164.161 236.091H86.9843V196.429H164.161V236.091ZM87.5702 235.502H163.575V197.019H87.5702V235.502Z" fill="#673AB7" fill-opacity="0.4"/>
<path d="M168.176 186.97L166.754 192.248H91.6379L94.0651 187.855L168.176 186.97Z" fill="#673AB7" fill-opacity="0.4"/>
<path d="M102.133 217.213H89.8303V217.898H102.133V217.213Z" fill="white"/>
<path d="M102.133 219.612H89.8303V220.298H102.133V219.612Z" fill="white"/>
<path d="M102.133 222.011H89.8303V222.697H102.133V222.011Z" fill="white"/>
<path d="M94.5959 209.577C97.0399 209.577 99.0212 207.582 99.0212 205.121C99.0212 202.661 97.0399 200.666 94.5959 200.666C92.152 200.666 90.1707 202.661 90.1707 205.121C90.1707 207.582 92.152 209.577 94.5959 209.577Z" fill="white"/>
<path d="M143.097 189.255H139.339V160.131H142.395C142.543 160.131 142.685 160.19 142.79 160.295C142.895 160.4 142.955 160.543 142.955 160.692L143.097 189.255Z" fill="#673AB7" fill-opacity="0.4"/>
<path d="M139.69 189.409H99.3305V168.668H139.69V189.409Z" fill="white"/>
<path d="M123.782 189.332H99.4071V168.745H139.614V173.392C139.609 177.618 137.939 181.67 134.971 184.658C132.004 187.646 127.98 189.327 123.782 189.332Z" fill="#CAC7CE"/>
<path d="M142.485 160.958C142.465 160.997 142.449 161.038 142.438 161.08L141.046 166.481L139.537 169.36H99.4837V168.643L101.764 166.481L104.424 161.358C104.542 161.132 104.696 160.927 104.88 160.752C105.302 160.353 105.858 160.131 106.437 160.131H141.99C142.086 160.131 142.181 160.156 142.265 160.204C142.349 160.252 142.42 160.32 142.47 160.404C142.519 160.487 142.547 160.582 142.55 160.679C142.552 160.776 142.53 160.872 142.485 160.958Z" fill="#CAC7CE"/>
<path d="M139.69 189.409H99.3305V168.668H139.69V189.409ZM99.6369 189.101H139.384V168.976H99.6369V189.101Z" fill="#673AB7" fill-opacity="0.4"/>
<path d="M141.79 163.721L141.046 166.481H101.764L103.033 164.184L141.79 163.721Z" fill="#673AB7" fill-opacity="0.4"/>
<path d="M107.253 179.536H100.819V179.895H107.253V179.536Z" fill="white"/>
<path d="M107.253 180.791H100.819V181.15H107.253V180.791Z" fill="white"/>
<path d="M107.253 182.046H100.819V182.404H107.253V182.046Z" fill="white"/>
<path d="M103.311 175.543C104.589 175.543 105.625 174.5 105.625 173.213C105.625 171.926 104.589 170.883 103.311 170.883C102.033 170.883 100.997 171.926 100.997 173.213C100.997 174.5 102.033 175.543 103.311 175.543Z" fill="white"/>
<path d="M253.86 236.071L253.836 235.946C253.456 233.834 253.537 231.665 254.073 229.588C254.61 227.512 255.589 225.578 256.943 223.921C257.71 222.997 258.589 222.175 259.559 221.473L259.652 221.405L259.692 221.513C260.175 222.795 260.785 224.078 261.063 224.647L261.25 220.405L261.357 220.348C261.847 220.083 262.404 219.973 262.957 220.03C263.51 220.088 264.034 220.31 264.46 220.67C264.901 221.027 265.225 221.508 265.392 222.052C265.558 222.596 265.559 223.178 265.395 223.722C265.249 224.221 265.111 224.738 264.978 225.238C264.521 226.956 264.049 228.732 263.132 230.228C262.428 231.354 261.483 232.306 260.366 233.017C259.249 233.728 257.988 234.178 256.676 234.335L253.86 236.071Z" fill="#F2F2F2"/>
<path d="M265.516 236.019C265.516 236.065 265.507 236.111 265.49 236.154C265.472 236.196 265.447 236.235 265.414 236.268C265.382 236.3 265.343 236.326 265.301 236.344C265.259 236.361 265.213 236.37 265.167 236.37H78.7801C78.6877 236.37 78.599 236.333 78.5336 236.267C78.4682 236.202 78.4315 236.112 78.4315 236.019C78.4315 235.926 78.4682 235.837 78.5336 235.771C78.599 235.705 78.6877 235.668 78.7801 235.668H265.167C265.213 235.668 265.259 235.677 265.301 235.695C265.343 235.712 265.382 235.738 265.414 235.771C265.447 235.803 265.472 235.842 265.49 235.885C265.507 235.927 265.516 235.973 265.516 236.019Z" fill="#CCCCCC"/>
<path d="M223.239 146.217L217.904 145.448C216.1 148.486 215.459 156.572 215.459 156.572L210.237 169.067C209.892 169.303 209.614 169.627 209.432 170.006C209.25 170.385 209.17 170.806 209.201 171.225C209.232 171.645 209.372 172.049 209.608 172.397C209.843 172.745 210.165 173.024 210.542 173.207C210.918 173.39 211.336 173.469 211.753 173.438C212.169 173.406 212.571 173.264 212.916 173.027C213.261 172.79 213.538 172.465 213.719 172.086C213.9 171.706 213.979 171.286 213.947 170.866L222.519 156.322L223.239 146.217Z" fill="#FFB8B8"/>
<path d="M222.39 131.304C223.216 131.433 224.003 131.744 224.696 132.214C225.389 132.684 225.971 133.302 226.4 134.024C226.829 134.746 227.094 135.554 227.178 136.391C227.261 137.228 227.16 138.074 226.882 138.867L225.75 142.098C225.75 142.098 225.134 151.827 222.783 154.573L215.571 153.916C215.571 153.916 216.89 149.007 215.878 146.633C215.258 145.178 215.292 140.155 215.903 136.069C216.017 135.327 216.276 134.615 216.664 133.974C217.052 133.332 217.562 132.774 218.165 132.332C218.768 131.889 219.451 131.571 220.176 131.395C220.901 131.218 221.653 131.188 222.39 131.304Z" fill="#CAC7CE"/>
<path d="M240.021 232.25L236.808 232.249L235.279 219.768L240.022 219.769L240.021 232.25Z" fill="#FFB6B6"/>
<path d="M240.134 235.625L230.252 235.625V235.499C230.252 234.472 230.657 233.487 231.379 232.761C232.1 232.034 233.078 231.626 234.098 231.626L235.904 230.247L239.272 231.626L240.135 231.626L240.134 235.625Z" fill="#2F2E41"/>
<path d="M226.05 216.782L223.081 218.021L216.92 207.082L221.302 205.252L226.05 216.782Z" fill="#FFB6B6"/>
<path d="M227.439 219.856L218.31 223.667L218.262 223.551C217.871 222.602 217.871 221.536 218.261 220.587C218.651 219.638 219.399 218.883 220.341 218.49L221.485 216.52L225.12 216.495L225.917 216.162L227.439 219.856Z" fill="#2F2E41"/>
<path d="M243.696 161.251L220.889 163.65L217.838 173.996L207.273 191.091L218.938 212.671L223.046 208.959L219.103 191.532L230.873 178.738L233.105 177.806L234.877 225.282L241.43 225.39L244.297 173.003C245.675 168.376 245.26 164.554 243.696 161.251Z" fill="#2F2E41"/>
<path d="M235.334 128.499L231.591 124.254L225.675 124.916L221.888 130.253C219.873 130.719 218.111 131.946 216.966 133.68C215.821 135.415 215.38 137.525 215.734 139.577C217.203 148.098 222.198 156.361 220.548 160.565C218.045 166.947 217.892 169.55 223.885 168.655C229.877 167.76 249.952 165.698 246.06 161.779C242.168 157.86 241.313 151.311 241.313 151.311L241.157 136.329C241.322 135.426 241.3 134.497 241.092 133.603C240.884 132.708 240.494 131.867 239.947 131.131C239.4 130.396 238.708 129.782 237.914 129.329C237.12 128.876 236.242 128.593 235.334 128.499Z" fill="#CAC7CE"/>
<path d="M228.019 123.168C231.645 123.168 234.585 120.208 234.585 116.557C234.585 112.906 231.645 109.946 228.019 109.946C224.392 109.946 221.453 112.906 221.453 116.557C221.453 120.208 224.392 123.168 228.019 123.168Z" fill="#FFB8B8"/>
<path d="M236.109 116.165C235.816 117.504 235.287 118.78 234.547 119.932C234.351 120.325 234.058 120.66 233.696 120.906C233.512 121.024 233.293 121.074 233.077 121.047C232.861 121.02 232.661 120.917 232.512 120.757L232.353 120.626C232.666 120.431 232.946 120.187 233.181 119.902C233.297 119.759 233.378 119.59 233.417 119.409C233.455 119.229 233.451 119.041 233.403 118.863C233.346 118.687 233.224 118.54 233.062 118.452C232.899 118.365 232.71 118.345 232.533 118.395C232.149 118.547 231.915 119.107 231.513 119.021C231.187 118.949 231.119 118.517 231.119 118.178C231.131 116.403 230.279 113.88 229.62 113.958C228.953 113.995 228.286 113.905 227.653 113.693C227.019 113.481 226.35 113.395 225.683 113.44C225.636 113.446 225.588 113.455 225.538 113.464C225.431 113.126 225.284 112.803 225.1 112.502C225.121 112.866 225.103 113.231 225.047 113.592C224.516 113.812 223.968 113.986 223.408 114.113C222.799 114.199 221.459 116.034 221.397 115.846C221.29 115.509 221.143 115.186 220.959 114.884C220.98 115.248 220.962 115.614 220.906 115.974C220.903 115.989 220.903 116.001 220.9 116.016C220.604 115.62 220.424 115.137 220.525 115.506C219.534 113.249 219.918 111.632 221.477 109.729C221.781 109.32 222.183 108.995 222.645 108.785C222.877 108.682 223.131 108.642 223.383 108.667C223.634 108.692 223.875 108.782 224.083 108.928C224.719 108.341 225.499 107.936 226.342 107.755C227.186 107.574 228.062 107.623 228.88 107.897C230.504 108.466 231.755 108.8 232.004 110.515C233.347 110.298 234.728 111.066 235.467 112.213C236.204 113.362 236.355 114.822 236.109 116.165Z" fill="#2F2E41"/>
<path d="M230.785 171.077H228.605V154.189H230.378C230.463 154.189 230.546 154.223 230.607 154.284C230.667 154.345 230.702 154.428 230.702 154.514L230.785 171.077Z" fill="#3F3D56"/>
<path d="M228.809 171.166H205.406V159.139H228.809V171.166Z" fill="white"/>
<path d="M219.585 171.121H205.45V159.184H228.764V161.878C228.762 164.329 227.794 166.678 226.073 168.411C224.352 170.144 222.018 171.119 219.585 171.121Z" fill="#673AB7"/>
<path d="M230.43 154.668C230.418 154.691 230.409 154.715 230.402 154.739L229.595 157.871L228.72 159.54H205.495V159.124L206.817 157.871L208.359 154.9C208.428 154.769 208.517 154.65 208.624 154.549C208.868 154.318 209.191 154.189 209.526 154.189H230.142C230.198 154.189 230.253 154.203 230.302 154.231C230.351 154.259 230.392 154.299 230.421 154.347C230.449 154.395 230.465 154.45 230.467 154.506C230.469 154.563 230.456 154.619 230.43 154.668Z" fill="#3F3D56"/>
<path d="M228.809 171.166H205.406V159.139H228.809V171.166ZM205.583 170.987H228.631V159.318H205.583V170.987Z" fill="#3F3D56"/>
<path d="M230.026 156.27L229.595 157.871H206.817L207.553 156.539L230.026 156.27Z" fill="#673AB7"/>
<path d="M209.999 165.441H206.269V165.649H209.999V165.441Z" fill="white"/>
<path d="M209.999 166.169H206.269V166.377H209.999V166.169Z" fill="white"/>
<path d="M209.999 166.896H206.269V167.104H209.999V166.896Z" fill="white"/>
<path d="M207.714 163.126C208.455 163.126 209.056 162.521 209.056 161.775C209.056 161.029 208.455 160.424 207.714 160.424C206.973 160.424 206.372 161.029 206.372 161.775C206.372 162.521 206.973 163.126 207.714 163.126Z" fill="white"/>
<path d="M239.889 144.673L234.554 143.904C232.75 146.942 232.109 155.028 232.109 155.028L226.887 167.523C226.542 167.759 226.264 168.083 226.082 168.462C225.9 168.841 225.82 169.261 225.851 169.681C225.882 170.101 226.022 170.505 226.258 170.853C226.493 171.201 226.815 171.48 227.192 171.663C227.568 171.845 227.986 171.925 228.403 171.894C228.819 171.862 229.221 171.72 229.566 171.483C229.911 171.246 230.188 170.921 230.369 170.542C230.55 170.162 230.629 169.742 230.597 169.322L239.169 154.778L239.889 144.673Z" fill="#FFB8B8"/>
<path d="M236.998 129.76C237.823 129.889 238.611 130.2 239.304 130.67C239.997 131.14 240.579 131.758 241.007 132.48C241.436 133.202 241.702 134.01 241.785 134.847C241.869 135.684 241.768 136.53 241.49 137.323L240.357 140.554C240.357 140.554 241.784 150.283 239.433 153.029L232.221 152.372C232.221 152.372 233.54 147.463 232.528 145.089C231.908 143.634 231.942 138.611 232.553 134.525C233.019 131.405 233.901 129.278 236.998 129.76Z" fill="#CAC7CE"/>
<path d="M191.696 113.664C189.089 114.973 187.106 117.27 186.182 120.052C185.258 122.833 185.469 125.87 186.769 128.495C189.476 133.96 199.258 143.281 207.063 144.689C203.706 134.425 208.374 123.992 206.425 118.624C204.343 112.888 197.124 110.938 191.696 113.664Z" fill="#673AB7"/>
<path d="M195.354 126.662C197.333 126.662 198.936 125.047 198.936 123.055C198.936 121.064 197.333 119.449 195.354 119.449C193.376 119.449 191.773 121.064 191.773 123.055C191.773 125.047 193.376 126.662 195.354 126.662Z" fill="white"/>
<path d="M206.994 150.478C208.29 150.478 209.34 149.42 209.34 148.115C209.34 146.811 208.29 145.753 206.994 145.753C205.699 145.753 204.648 146.811 204.648 148.115C204.648 149.42 205.699 150.478 206.994 150.478Z" fill="#673AB7"/>
<path opacity="0.2" d="M196.446 119.264C196.916 119.248 197.385 119.325 197.826 119.491C198.267 119.657 198.671 119.909 199.015 120.233C199.359 120.556 199.636 120.944 199.831 121.376C200.026 121.807 200.134 122.273 200.15 122.746C200.166 123.22 200.089 123.692 199.924 124.136C199.758 124.579 199.508 124.986 199.186 125.332C198.865 125.678 198.479 125.957 198.05 126.153C197.622 126.348 197.159 126.457 196.689 126.473C197.486 126.174 198.151 125.6 198.566 124.852C198.981 124.105 199.118 123.233 198.953 122.393C198.788 121.553 198.332 120.8 197.665 120.268C196.999 119.736 196.166 119.46 195.316 119.49C195.678 119.354 196.06 119.278 196.446 119.264Z" fill="#231F20"/>
<path opacity="0.2" d="M206.443 118.626C208.392 123.994 203.724 134.427 207.081 144.691C206.345 144.555 205.619 144.363 204.91 144.119C202.175 134.197 206.468 124.282 204.585 119.096C202.9 114.454 197.851 112.292 193.109 113.081C198.313 111.293 204.535 113.37 206.443 118.626Z" fill="#231F20"/>
<path d="M96.4935 168.431C93.7953 168.366 91.1819 169.383 89.2282 171.258C87.2744 173.133 86.1404 175.712 86.0756 178.429C85.9407 184.086 89.9413 195.988 95.7276 200.547C97.3952 190.676 105.709 184.168 106.423 178.921C107.186 173.314 102.112 168.567 96.4935 168.431Z" fill="#CAC7CE"/>
<path d="M95.4483 181.062C97.2813 181.062 98.7672 179.565 98.7672 177.72C98.7672 175.874 97.2813 174.378 95.4483 174.378C93.6153 174.378 92.1294 175.874 92.1294 177.72C92.1294 179.565 93.6153 181.062 95.4483 181.062Z" fill="white"/>
<path d="M94.1966 205.512C95.3972 205.512 96.3705 204.532 96.3705 203.324C96.3705 202.115 95.3972 201.135 94.1966 201.135C92.9961 201.135 92.0228 202.115 92.0228 203.324C92.0228 204.532 92.9961 205.512 94.1966 205.512Z" fill="#673AB7" fill-opacity="0.4"/>
<path opacity="0.2" d="M97.9739 175.091C98.7655 175.479 99.3716 176.167 99.659 177.005C99.9465 177.843 99.8916 178.761 99.5066 179.558C99.3159 179.952 99.0499 180.305 98.7238 180.597C98.3977 180.888 98.0178 181.111 97.6059 181.255C96.7739 181.544 95.8618 181.489 95.0703 181.101C95.8517 181.204 96.644 181.024 97.3056 180.593C97.9671 180.162 98.4547 179.508 98.681 178.748C98.9073 177.988 98.8576 177.171 98.5407 176.445C98.2239 175.718 97.6605 175.129 96.9516 174.783C97.3067 174.829 97.6519 174.933 97.9739 175.091Z" fill="#231F20"/>
<path opacity="0.2" d="M106.437 178.93C105.723 184.177 97.4092 190.685 95.7416 200.557C95.197 200.123 94.685 199.65 94.2097 199.141C96.2395 189.821 104.023 183.574 104.713 178.504C105.331 173.967 102.125 169.993 97.9019 168.57C102.934 169.377 107.136 173.793 106.437 178.93Z" fill="#673AB7"/>
<path d="M135.102 124.891C134.344 124.94 133.635 125.286 133.126 125.855C132.617 126.423 132.348 127.169 132.377 127.933C132.385 128.089 132.407 128.243 132.44 128.395L123.829 133.857L128.59 135.977L136.037 130.465C136.652 130.276 137.187 129.888 137.559 129.36C137.931 128.833 138.119 128.196 138.094 127.55C138.077 127.182 137.987 126.821 137.831 126.489C137.675 126.156 137.455 125.857 137.184 125.61C136.913 125.362 136.597 125.171 136.253 125.047C135.909 124.923 135.543 124.868 135.178 124.886C135.153 124.887 135.127 124.889 135.102 124.891Z" fill="#FFB6B6"/>
<path d="M126.798 131.375L128.932 135.808L120.494 141.276C119.893 141.668 119.203 141.9 118.489 141.948C117.775 141.996 117.06 141.859 116.413 141.551C115.626 141.172 114.983 140.546 114.581 139.767C114.179 138.988 114.039 138.098 114.182 137.232L116.92 121.492C117.104 120.391 117.7 119.402 118.586 118.73C119.471 118.057 120.579 117.752 121.682 117.877C122.219 117.936 122.739 118.101 123.212 118.362C123.686 118.624 124.104 118.977 124.442 119.401C124.78 119.825 125.032 120.312 125.183 120.834C125.334 121.356 125.382 121.903 125.323 122.443C125.318 122.486 125.313 122.529 125.307 122.571C125.287 122.723 125.258 122.873 125.221 123.021L122.232 134.214L126.798 131.375Z" fill="#673AB7"/>
<path d="M127.398 138.248H115.329V150.399H127.398V138.248Z" fill="#FFB8B8"/>
<path d="M156.017 174.034L160.626 172.472L163.193 185.104L160.069 186.162L156.017 174.034Z" fill="#FFB6B6"/>
<path d="M148.206 173.063L152.777 171.394L155.635 183.962L152.537 185.093L148.206 173.063Z" fill="#FFB6B6"/>
<path d="M115.762 153.573C113.344 169.81 145.554 160.211 145.554 160.211L155.654 174.238L161.567 173.156C161.567 173.156 158.906 164.735 154.155 153.445C152.045 148.432 128.085 149.657 128.085 149.657L127.588 145.726L113.881 145.455L115.762 153.573Z" fill="#2F2E41"/>
<path d="M139.03 161.299L146.478 156.628C151.931 167.591 153.538 172.339 153.538 172.339L148.383 173.799L139.03 161.299Z" fill="#2F2E41"/>
<path d="M122.657 118.503L120.228 115.359L116.763 115.208L116.417 118.164L114.7 118.961C112.985 125.519 112.721 132.376 113.924 139.048C114.154 139.266 114.322 139.542 114.411 139.847C114.5 140.152 114.506 140.476 114.429 140.785L114.318 141.232L114.328 141.248C114.694 141.828 114.818 142.53 114.674 143.202L113.854 144.669C113.559 145.196 113.383 145.782 113.336 146.385C113.289 146.988 113.374 147.595 113.583 148.162C113.793 148.729 114.123 149.243 114.55 149.669C114.977 150.094 115.491 150.421 116.056 150.627C121.096 152.466 125.82 153.151 129.316 147.99L130.415 130.003L122.657 118.503Z" fill="#673AB7"/>
<path d="M120.112 116.194C123.65 116.194 126.519 113.306 126.519 109.743C126.519 106.181 123.65 103.293 120.112 103.293C116.574 103.293 113.705 106.181 113.705 109.743C113.705 113.306 116.574 116.194 120.112 116.194Z" fill="#FFB8B8"/>
<path d="M116.896 101.967C114.183 102.02 112.032 104.553 112.09 107.626C110.083 109.735 109.597 120.108 111.274 122.868C114.342 123.226 116.209 115.583 118.899 116.688L119.254 115.02L120.057 117.192C120.741 117.509 121.42 117.858 122.093 118.237C122.577 116.002 122.457 113.829 121.157 111.937C120.001 110.255 122.813 108.259 124.825 108.541L124.795 106.997L125.3 108.532C126.084 109.112 126.952 108.902 127.841 108.483C129.283 100.936 118.118 98.8721 116.896 101.967Z" fill="#2F2E41"/>
<path d="M158.65 188.298L160.703 188.028L160.817 186.028L162.009 187.857L167.455 187.14C167.716 187.106 167.959 186.988 168.149 186.805C168.339 186.622 168.466 186.382 168.511 186.121C168.557 185.859 168.518 185.591 168.4 185.353C168.283 185.116 168.093 184.923 167.859 184.802L163.117 182.349L162.861 180.376L158.323 181.253L158.65 188.298Z" fill="#2F2E41"/>
<path d="M153.226 188.316L155.089 187.405L154.568 185.472L156.273 186.827L161.214 184.411C161.451 184.295 161.645 184.106 161.768 183.872C161.89 183.637 161.935 183.369 161.896 183.107C161.856 182.845 161.735 182.602 161.549 182.415C161.363 182.227 161.122 182.104 160.862 182.064L155.593 181.249L154.73 179.459L150.7 181.737L153.226 188.316Z" fill="#2F2E41"/>
<path d="M125.105 145.301H127.389V127.599H125.531C125.441 127.599 125.355 127.635 125.291 127.699C125.227 127.763 125.191 127.85 125.191 127.94L125.105 145.301Z" fill="#673AB7" fill-opacity="0.4"/>
<path d="M127.175 132.788H151.706V145.395H127.175V132.788Z" fill="white"/>
<path d="M127.222 135.659V132.835H151.659V145.348H136.844C134.293 145.345 131.847 144.323 130.043 142.507C128.239 140.691 127.225 138.228 127.222 135.659Z" fill="#F2F2F2"/>
<path d="M125.477 128.102C125.489 128.126 125.499 128.15 125.505 128.176L126.351 131.459L127.268 133.208H151.613V132.773L150.227 131.459L148.61 128.345C148.539 128.208 148.445 128.083 148.333 127.977C148.077 127.734 147.738 127.599 147.387 127.599H125.778C125.719 127.599 125.661 127.615 125.61 127.644C125.559 127.673 125.516 127.714 125.486 127.765C125.456 127.816 125.439 127.873 125.437 127.932C125.436 127.991 125.449 128.05 125.477 128.102Z" fill="#CAC7CE"/>
<path d="M127.175 132.788H151.706V145.395H127.175V132.788ZM151.52 145.207H127.362V132.975H151.52L151.52 145.207Z" fill="#CAC7CE"/>
<path d="M125.899 129.781L126.351 131.459H150.227L149.455 130.063L125.899 129.781Z" fill="#673AB7" fill-opacity="0.4"/>
<path d="M150.801 139.394H146.891V139.612H150.801V139.394Z" fill="white"/>
<path d="M150.801 140.157H146.891V140.374H150.801V140.157Z" fill="white"/>
<path d="M150.801 140.919H146.891V141.137H150.801V140.919Z" fill="white"/>
<path d="M149.287 136.967C150.063 136.967 150.693 136.333 150.693 135.551C150.693 134.769 150.063 134.135 149.287 134.135C148.51 134.135 147.88 134.769 147.88 135.551C147.88 136.333 148.51 136.967 149.287 136.967Z" fill="white"/>
<path d="M137.94 114.152C139.593 114.112 141.195 114.735 142.392 115.884C143.589 117.033 144.284 118.613 144.323 120.278C144.406 123.744 141.955 131.037 138.409 133.831C137.387 127.782 132.293 123.794 131.856 120.579C131.388 117.144 134.497 114.235 137.94 114.152Z" fill="#673AB7" fill-opacity="0.4"/>
<path d="M138.58 121.891C139.704 121.891 140.614 120.974 140.614 119.843C140.614 118.713 139.704 117.796 138.58 117.796C137.457 117.796 136.547 118.713 136.547 119.843C136.547 120.974 137.457 121.891 138.58 121.891Z" fill="white"/>
<path d="M139.347 136.873C140.083 136.873 140.679 136.273 140.679 135.532C140.679 134.791 140.083 134.191 139.347 134.191C138.612 134.191 138.015 134.791 138.015 135.532C138.015 136.273 138.612 136.873 139.347 136.873Z" fill="#673AB7" fill-opacity="0.4"/>
<path opacity="0.2" d="M137.033 118.233C136.793 118.35 136.578 118.514 136.401 118.716C136.224 118.917 136.088 119.151 136 119.405C135.913 119.659 135.876 119.928 135.893 120.197C135.909 120.465 135.977 120.728 136.094 120.97C136.211 121.211 136.374 121.428 136.573 121.606C136.773 121.784 137.006 121.921 137.258 122.009C137.511 122.097 137.778 122.134 138.045 122.118C138.311 122.102 138.572 122.033 138.812 121.915C138.333 121.978 137.848 121.868 137.442 121.604C137.037 121.34 136.738 120.939 136.6 120.473C136.461 120.008 136.491 119.507 136.686 119.062C136.88 118.617 137.225 118.256 137.659 118.044C137.442 118.072 137.23 118.136 137.033 118.233Z" fill="#231F20"/>
<path opacity="0.2" d="M131.847 120.585C132.285 123.8 137.379 127.788 138.401 133.837C138.734 133.571 139.048 133.281 139.339 132.969C138.096 127.258 133.326 123.43 132.904 120.324C132.525 117.544 134.489 115.109 137.077 114.237C133.994 114.731 131.419 117.437 131.847 120.585Z" fill="#673AB7" fill-opacity="0.4"/>
<path d="M134.317 131.179C133.559 131.122 132.809 131.366 132.227 131.858C131.645 132.349 131.276 133.05 131.199 133.812C131.186 133.967 131.186 134.122 131.198 134.277L121.917 138.483L126.339 141.248L134.475 136.83C135.109 136.729 135.693 136.419 136.134 135.949C136.575 135.478 136.849 134.874 136.914 134.231C136.981 133.49 136.753 132.753 136.28 132.182C135.807 131.611 135.129 131.252 134.393 131.185C134.368 131.183 134.343 131.181 134.317 131.179Z" fill="#FFB6B6"/>
<path d="M125.2 136.44L126.702 141.129L117.591 145.364C116.942 145.669 116.227 145.801 115.513 145.749C114.799 145.697 114.11 145.462 113.512 145.066C112.785 144.581 112.235 143.871 111.944 143.043C111.653 142.215 111.637 141.314 111.898 140.477L116.78 125.272C117.114 124.207 117.841 123.311 118.81 122.769C119.78 122.227 120.919 122.08 121.994 122.357C122.517 122.491 123.01 122.727 123.443 123.052C123.876 123.377 124.241 123.785 124.517 124.252C124.793 124.72 124.976 125.237 125.054 125.775C125.131 126.313 125.103 126.862 124.97 127.389C124.96 127.43 124.949 127.472 124.937 127.513C124.896 127.66 124.846 127.805 124.79 127.946L120.286 138.614L125.2 136.44Z" fill="#673AB7"/>
</g>
<path d="M332.071 165.069H324.562C321.912 165.069 321.313 166.434 320.985 168.12L319.774 174.061H336.873L335.662 168.12C335.306 166.434 334.722 165.069 332.071 165.069Z" stroke="#673AB7" stroke-width="1.5" stroke-linecap="round" stroke-linejoin="round"/>
<path d="M338.982 183.757C339.096 185.048 338.099 186.163 336.816 186.163H334.807C333.653 186.163 333.496 185.649 333.282 185.033L333.069 184.373C332.769 183.478 332.57 182.862 331.031 182.862H325.559C324.02 182.862 323.792 183.552 323.522 184.373L323.308 185.033C323.108 185.664 322.952 186.163 321.783 186.163H319.774C318.492 186.163 317.48 185.048 317.608 183.757L318.207 177.053C318.363 175.396 318.663 174.046 321.47 174.046H335.106C337.913 174.046 338.213 175.396 338.369 177.053L338.982 183.757Z" stroke="#673AB7" stroke-width="1.5" stroke-linecap="round" stroke-linejoin="round"/>
<path d="M319.76 170.761H318.691" stroke="#673AB7" stroke-width="1.5" stroke-linecap="round" stroke-linejoin="round"/>
<path d="M337.928 170.761H336.859" stroke="#673AB7" stroke-width="1.5" stroke-linecap="round" stroke-linejoin="round"/>
<path d="M321.897 178.462H325.103" stroke="#673AB7" stroke-width="1.5" stroke-linecap="round" stroke-linejoin="round"/>
<path d="M331.516 178.462H334.722" stroke="#673AB7" stroke-width="1.5" stroke-linecap="round" stroke-linejoin="round"/>
<path d="M341.433 166.712C341.832 165.759 341.689 164.468 340.948 163.339C340.222 162.209 339.11 161.578 338.099 161.593" stroke="#673AB7" stroke-width="1.5" stroke-linecap="round" stroke-linejoin="round"/>
<path d="M345.865 168.164C346.463 165.949 346.036 163.236 344.511 160.889C342.986 158.542 340.706 157.104 338.483 156.826" stroke="#673AB7" stroke-width="1.5" stroke-linecap="round" stroke-linejoin="round"/>
<path d="M183.598 19.8756C182.999 20.477 182.657 21.3425 182.743 22.2666C182.871 23.8508 184.282 25.0095 185.821 25.0095H188.528V26.7551C188.528 29.7914 186.12 32.2704 183.17 32.2704H166.812C163.863 32.2704 161.454 29.7914 161.454 26.7551V16.8833C161.454 13.8469 163.863 11.368 166.812 11.368H183.17C186.12 11.368 188.528 13.8469 188.528 16.8833V18.9956H185.65C184.852 18.9956 184.125 19.3182 183.598 19.8756Z" stroke="#673AB7" stroke-width="1.5" stroke-linecap="round" stroke-linejoin="round"/>
<path d="M161.454 18.2034V11.5001C161.454 9.75453 162.495 8.19961 164.076 7.58354L175.39 3.18303C177.157 2.49362 179.052 3.84315 179.052 5.79405V11.368" stroke="#673AB7" stroke-width="1.5" stroke-linecap="round" stroke-linejoin="round"/>
<path d="M190.037 20.492V23.5137C190.037 24.3205 189.41 24.9805 188.612 25.0098H185.819C184.28 25.0098 182.869 23.8511 182.741 22.2669C182.656 21.3428 182.998 20.4773 183.596 19.8759C184.123 19.3185 184.85 18.9958 185.648 18.9958H188.612C189.41 19.0252 190.037 19.6852 190.037 20.492Z" stroke="#673AB7" stroke-width="1.5" stroke-linecap="round" stroke-linejoin="round"/>
<path d="M167.867 17.6021H177.841" stroke="#673AB7" stroke-width="1.5" stroke-linecap="round" stroke-linejoin="round"/>
<path d="M4.98724 186.162V161.226C4.98724 158.293 6.89665 156.826 9.26203 156.826H20.6614C23.0268 156.826 24.9362 158.293 24.9362 161.226V186.162H4.98724Z" stroke="#673AB7" stroke-width="1.5" stroke-linecap="round" stroke-linejoin="round"/>
<path d="M2.84985 186.162H27.0736" stroke="#673AB7" stroke-width="1.5" stroke-linecap="round" stroke-linejoin="round"/>
<path d="M11.9551 168.56H17.9826C19.4645 168.56 20.6757 167.827 20.6757 165.788V163.984C20.6757 161.945 19.4645 161.212 17.9826 161.212H11.9551C10.4732 161.212 9.26202 161.945 9.26202 163.984V165.788C9.26202 167.827 10.4732 168.56 11.9551 168.56Z" stroke="#673AB7" stroke-width="1.5" stroke-linecap="round" stroke-linejoin="round"/>
<path d="M9.26202 172.961H13.5368" stroke="#673AB7" stroke-width="1.5" stroke-linecap="round" stroke-linejoin="round"/>
<path d="M24.9362 177.376L31.3484 177.361V168.56L28.4985 167.094" stroke="#673AB7" stroke-width="1.5" stroke-linecap="round" stroke-linejoin="round"/>
<path d="M160.742 306.73H163.221C164.76 306.73 165.971 308.094 165.843 309.663L164.661 324.273C164.461 326.664 166.299 328.717 168.636 328.717H183.812C185.863 328.717 187.659 326.987 187.816 324.889L188.585 313.888C188.756 311.453 186.961 309.473 184.581 309.473H166.185" stroke="#673AB7" stroke-width="1.5" stroke-miterlimit="10" stroke-linecap="round" stroke-linejoin="round"/>
<path d="M181.047 336.066C182.031 336.066 182.828 335.245 182.828 334.233C182.828 333.22 182.031 332.399 181.047 332.399C180.064 332.399 179.266 333.22 179.266 334.233C179.266 335.245 180.064 336.066 181.047 336.066Z" stroke="#673AB7" stroke-width="1.5" stroke-miterlimit="10" stroke-linecap="round" stroke-linejoin="round"/>
<path d="M169.648 336.066C170.632 336.066 171.429 335.245 171.429 334.233C171.429 333.22 170.632 332.399 169.648 332.399C168.664 332.399 167.867 333.22 167.867 334.233C167.867 335.245 168.664 336.066 169.648 336.066Z" stroke="#673AB7" stroke-width="1.5" stroke-miterlimit="10" stroke-linecap="round" stroke-linejoin="round"/>
<path d="M170.716 316.997H187.816" stroke="#673AB7" stroke-width="1.5" stroke-miterlimit="10" stroke-linecap="round" stroke-linejoin="round"/>
<path d="M61.961 276.31C61.961 274.344 63.5569 272.748 65.5233 272.748V271.323C65.5233 265.623 64.0984 264.198 58.3987 264.198H44.1494C38.4497 264.198 37.0248 265.623 37.0248 271.323V272.035C38.9912 272.035 40.5871 273.631 40.5871 275.598C40.5871 277.564 38.9912 279.16 37.0248 279.16V279.872C37.0248 285.572 38.4497 286.997 44.1494 286.997H58.3987C64.0984 286.997 65.5233 285.572 65.5233 279.872C63.5569 279.872 61.961 278.277 61.961 276.31Z" stroke="#673AB7" stroke-width="1.5" stroke-linecap="round" stroke-linejoin="round"/>
<path d="M48.4242 264.198L48.4242 286.997" stroke="#673AB7" stroke-width="1.5" stroke-linecap="round" stroke-linejoin="round" stroke-dasharray="5 5"/>
<path d="M282.18 281.125L299.208 264.097" stroke="#673AB7" stroke-width="1.5" stroke-miterlimit="10" stroke-linecap="round" stroke-linejoin="round"/>
<path d="M292.399 284.545L294.109 282.835" stroke="#673AB7" stroke-width="1.5" stroke-miterlimit="10" stroke-linecap="round" stroke-linejoin="round"/>
<path d="M296.234 280.711L299.64 277.306" stroke="#673AB7" stroke-width="1.5" stroke-miterlimit="10" stroke-linecap="round" stroke-linejoin="round"/>
<path d="M281.712 273.088L291.173 263.627C294.194 260.606 295.705 260.592 298.697 263.584L305.693 270.58C308.686 273.573 308.671 275.083 305.651 278.104L296.189 287.566C293.168 290.586 291.658 290.601 288.665 287.608L281.669 280.612C278.677 277.62 278.677 276.123 281.712 273.088Z" stroke="#673AB7" stroke-width="1.5" stroke-linecap="round" stroke-linejoin="round"/>
<path d="M279.43 289.845H307.929" stroke="#673AB7" stroke-width="1.5" stroke-linecap="round" stroke-linejoin="round"/>
<path d="M47.042 79.1866L50.3621 76.3937C50.8609 75.9663 51.6873 75.9663 52.186 76.3937L55.5061 79.1866C56.2756 79.5713 57.216 79.1866 57.501 78.3601L58.128 76.465C58.2847 76.009 58.128 75.3393 57.786 74.9973L54.5514 71.7485C54.3092 71.5205 54.1239 71.0645 54.1239 70.7368V66.6757C54.1239 66.0773 54.5657 65.7923 55.1214 66.0203L62.1178 69.0411C63.215 69.5113 64.1127 68.9271 64.1127 67.7302V65.892C64.1127 64.9373 63.4002 63.8401 62.5168 63.4696L54.5514 60.0356C54.3234 59.9358 54.1239 59.6366 54.1239 59.3801V55.1053C54.1239 53.7659 53.1407 52.1842 51.9438 51.5715C51.5163 51.3578 51.0176 51.3578 50.5901 51.5715C49.3932 52.1842 48.41 53.7801 48.41 55.1196V59.3944C48.41 59.6508 48.2105 59.9501 47.9825 60.0498L40.0314 63.4839C39.1479 63.8401 38.4355 64.9373 38.4355 65.892V67.7302C38.4355 68.9271 39.3332 69.5113 40.4304 69.0411L47.4268 66.0203C47.9683 65.778 48.4242 66.0773 48.4242 66.6757V70.7368C48.4242 71.0645 48.239 71.5205 48.011 71.7485L44.7764 74.9973C44.4344 75.3393 44.2777 75.9948 44.4344 76.465L45.0614 78.3601C45.3179 79.1866 46.2583 79.5856 47.042 79.1866Z" stroke="#673AB7" stroke-width="1.5" stroke-linecap="round" stroke-linejoin="round"/>
<path d="M284.459 72.1684V68.6061C284.459 65.058 287.323 62.1939 290.871 62.1939H294.434" stroke="#673AB7" stroke-width="1.5" stroke-linecap="round" stroke-linejoin="round"/>
<path d="M302.983 62.1939H306.546C310.094 62.1939 312.958 65.058 312.958 68.6061V72.1684" stroke="#673AB7" stroke-width="1.5" stroke-linecap="round" stroke-linejoin="round"/>
<path d="M312.958 82.1429V84.2803C312.958 87.8283 310.094 90.6924 306.546 90.6924H304.408" stroke="#673AB7" stroke-width="1.5" stroke-linecap="round" stroke-linejoin="round"/>
<path d="M294.434 90.6924H290.871C287.323 90.6924 284.459 87.8283 284.459 84.2803V80.718" stroke="#673AB7" stroke-width="1.5" stroke-linecap="round" stroke-linejoin="round"/>
<path d="M296.571 69.3185V72.1684C296.571 73.5933 295.859 74.3058 294.434 74.3058H291.584C290.159 74.3058 289.447 73.5933 289.447 72.1684V69.3185C289.447 67.8936 290.159 67.1812 291.584 67.1812H294.434C295.859 67.1812 296.571 67.8936 296.571 69.3185Z" stroke="#673AB7" stroke-width="1.5" stroke-linecap="round" stroke-linejoin="round"/>
<path d="M307.971 69.3185V72.1684C307.971 73.5933 307.258 74.3058 305.833 74.3058H302.983C301.558 74.3058 300.846 73.5933 300.846 72.1684V69.3185C300.846 67.8936 301.558 67.1812 302.983 67.1812H305.833C307.258 67.1812 307.971 67.8936 307.971 69.3185Z" stroke="#673AB7" stroke-width="1.5" stroke-linecap="round" stroke-linejoin="round"/>
<path d="M296.571 80.718V83.5678C296.571 84.9927 295.859 85.7052 294.434 85.7052H291.584C290.159 85.7052 289.447 84.9927 289.447 83.5678V80.718C289.447 79.293 290.159 78.5806 291.584 78.5806H294.434C295.859 78.5806 296.571 79.293 296.571 80.718Z" stroke="#673AB7" stroke-width="1.5" stroke-linecap="round" stroke-linejoin="round"/>
<path d="M307.971 80.718V83.5678C307.971 84.9927 307.258 85.7052 305.833 85.7052H302.983C301.558 85.7052 300.846 84.9927 300.846 83.5678V80.718C300.846 79.293 301.558 78.5806 302.983 78.5806H305.833C307.258 78.5806 307.971 79.293 307.971 80.718Z" stroke="#673AB7" stroke-width="1.5" stroke-linecap="round" stroke-linejoin="round"/>
<circle opacity="0.4" cx="106.519" cy="304" r="6" fill="#673AB7"/>
<circle opacity="0.4" cx="103.519" cy="39" r="6" fill="#673AB7"/>
<circle opacity="0.4" cx="239.33" cy="304" r="6" fill="#673AB7"/>
<circle opacity="0.4" cx="312.755" cy="226.277" r="6" fill="#673AB7"/>
<circle opacity="0.4" cx="34.0466" cy="226.277" r="6" fill="#673AB7"/>
<circle opacity="0.4" cx="312.755" cy="122.676" r="6" fill="#673AB7"/>
<circle opacity="0.4" cx="33.0466" cy="122.676" r="6" fill="#673AB7"/>
<circle opacity="0.4" cx="239.33" cy="39" r="6" fill="#673AB7"/>
<defs>
<clipPath id="clip0_128_1140">
<rect width="187.085" height="135.787" fill="white" transform="translate(78.4315 100.583)"/>
</clipPath>
</defs>
</svg>
