<svg width="26" height="26" viewBox="0 0 26 26" fill="none" xmlns="http://www.w3.org/2000/svg">
<g opacity="0.7">
<path d="M20.3302 24.9569C18.9087 26.3289 17.3567 26.1123 15.8626 25.4623C14.2816 24.798 12.8311 24.7691 11.163 25.4623C9.07425 26.3578 7.97186 26.0978 6.72442 24.9569C-0.354065 17.6922 0.690303 6.62916 8.72613 6.22477C10.6843 6.32587 12.0478 7.29352 13.1937 7.38018C14.9053 7.03356 16.5444 6.03702 18.372 6.167C20.5623 6.34031 22.2159 7.20687 23.3038 8.76667C18.7782 11.4674 19.8515 17.4034 24 19.0643C23.1732 21.2307 22.0998 23.3826 20.3157 24.9713L20.3302 24.9569ZM13.0486 6.13811C12.8311 2.91741 15.4565 0.259967 18.4736 0C18.8942 3.7262 15.0794 6.49918 13.0486 6.13811Z" fill="black"/>
</g>
</svg>
