<svg width="24" height="24" viewBox="0 0 24 24" fill="none" xmlns="http://www.w3.org/2000/svg">
  <path d="M9 22H15C20 22 22 20 22 15V9C22 4 20 2 15 2H9C4 2 2 4 2 9V15C2 20 4 22 9 22Z" stroke="#673AB7" stroke-width="1.5" stroke-linecap="round" stroke-linejoin="round"/>
  <path d="M16 14V16C16 16.6 15.6 17 15 17H12.6C12 17 11.6 16.6 11.6 16V14C11.6 13.4 12 13 12.6 13H15C15.6 13 16 13.4 16 14Z" stroke="#673AB7" stroke-width="1.5" stroke-linecap="round" stroke-linejoin="round"/>
  <path d="M12.4 10V8C12.4 7.4 12 7 11.4 7H9C8.4 7 8 7.4 8 8V10C8 10.6 8.4 11 9 11H11.4C12 11 12.4 10.6 12.4 10Z" stroke="#673AB7" stroke-width="1.5" stroke-linecap="round" stroke-linejoin="round"/>
</svg> 