<svg width="25" height="24" viewBox="0 0 25 24" fill="none" xmlns="http://www.w3.org/2000/svg">
<path d="M17.5 18.4297H13.5L9.04999 21.3897C8.38999 21.8297 7.5 21.3598 7.5 20.5598V18.4297C4.5 18.4297 2.5 16.4297 2.5 13.4297V7.42969C2.5 4.42969 4.5 2.42969 7.5 2.42969H17.5C20.5 2.42969 22.5 4.42969 22.5 7.42969V13.4297C22.5 16.4297 20.5 18.4297 17.5 18.4297Z" stroke="#606060" stroke-width="1.5" stroke-miterlimit="10" stroke-linecap="round" stroke-linejoin="round"/>
<path d="M12.5 11.3604V11.1504C12.5 10.4704 12.92 10.1104 13.34 9.82037C13.75 9.54037 14.16 9.18039 14.16 8.52039C14.16 7.60039 13.42 6.86035 12.5 6.86035C11.58 6.86035 10.84 7.60039 10.84 8.52039" stroke="#606060" stroke-width="1.5" stroke-linecap="round" stroke-linejoin="round"/>
<path d="M12.4955 13.75H12.5045" stroke="#606060" stroke-width="1.5" stroke-linecap="round" stroke-linejoin="round"/>
</svg>
