<svg width="29" height="28" viewBox="0 0 29 28" fill="none" xmlns="http://www.w3.org/2000/svg">
<path d="M11.1885 2.13672C13.0022 0.655981 15.7674 0.630708 17.6396 2.00977L17.8174 2.14746L17.8193 2.14844L25.5469 8.43652L25.5537 8.44238L25.8096 8.67285C26.388 9.23648 26.8282 9.96984 27.1113 10.7236C27.435 11.5855 27.5861 12.5609 27.4492 13.4658L27.4482 13.4785L26.4609 13.3164L27.4473 13.4785L25.9609 22.5264L25.96 22.5322C25.5389 24.9983 23.2504 26.9999 20.751 27H8.24512C5.80294 26.9999 3.60891 25.1569 3.0918 22.7744L3.04785 22.542L3.04688 22.5381L1.56055 13.4922L1.51758 13.1465C1.44767 12.3334 1.59403 11.4855 1.87891 10.7256C2.20432 9.85761 2.74112 9.02062 3.46191 8.43555L11.1885 2.13672Z" fill="white" stroke="#A9ABAD" stroke-width="2"/>
</svg>
