<svg width="24" height="24" viewBox="0 0 24 24" fill="none" xmlns="http://www.w3.org/2000/svg">
  <path d="M16.99 8.96H14.52C14.27 8.96 13.97 8.66 13.92 8.41L13.63 6.96C13.58 6.71 13.75 6.39 13.97 6.26L16.14 5C16.54 4.77 17.05 5.04 17.1 5.51L17.43 8.38C17.49 8.71 17.27 8.96 16.99 8.96Z" stroke="#606060" stroke-width="1.5" stroke-linecap="round" stroke-linejoin="round"/>
  <path d="M2 13.05V15C2 20 4 22 9 22H15C20 22 22 20 22 15V9C22 4 20 2 15 2H9C4 2 2 4 2 9" stroke="#606060" stroke-width="1.5" stroke-linecap="round" stroke-linejoin="round"/>
  <path d="M7 12.5H13" stroke="#606060" stroke-width="1.5" stroke-miterlimit="10" stroke-linecap="round" stroke-linejoin="round"/>
  <path d="M10 15.5V9.5" stroke="#606060" stroke-width="1.5" stroke-miterlimit="10" stroke-linecap="round" stroke-linejoin="round"/>
</svg> 