<svg width="21" height="21" viewBox="0 0 21 21" fill="none" xmlns="http://www.w3.org/2000/svg">
<path d="M10.5175 2.54297C7.62127 2.54297 5.26752 4.89672 5.26752 7.79297V10.3217C5.26752 10.8555 5.04002 11.6692 4.76877 12.1242L3.76252 13.7955C3.14127 14.828 3.57002 15.9742 4.70752 16.3592C8.47877 17.6192 12.5475 17.6192 16.3188 16.3592C17.3775 16.0092 17.8413 14.758 17.2638 13.7955L16.2575 12.1242C15.995 11.6692 15.7675 10.8555 15.7675 10.3217V7.79297C15.7675 4.90547 13.405 2.54297 10.5175 2.54297Z" stroke="#673AB7" stroke-width="1.5" stroke-miterlimit="10" stroke-linecap="round"/>
<path d="M12.1362 2.80465C11.865 2.7259 11.585 2.66465 11.2962 2.62965C10.4562 2.52465 9.65124 2.5859 8.89874 2.80465C9.15249 2.15715 9.78249 1.70215 10.5175 1.70215C11.2525 1.70215 11.8825 2.15715 12.1362 2.80465Z" stroke="#673AB7" stroke-width="1.5" stroke-miterlimit="10" stroke-linecap="round" stroke-linejoin="round"/>
<path d="M13.1425 16.6729C13.1425 18.1166 11.9612 19.2979 10.5175 19.2979C9.79996 19.2979 9.13496 19.0004 8.66246 18.5279C8.18996 18.0554 7.89246 17.3904 7.89246 16.6729" stroke="#673AB7" stroke-width="1.5" stroke-miterlimit="10"/>
</svg>
