<svg width="24" height="31" viewBox="0 0 24 31" fill="none" xmlns="http://www.w3.org/2000/svg">
<path d="M21.97 26.33C21.97 26.69 21.89 27.06 21.72 27.42C21.55 27.78 21.33 28.12 21.04 28.44C20.55 28.98 20.01 29.37 19.4 29.62C18.8 29.87 18.15 30 17.45 30C16.43 30 15.34 29.76 14.19 29.27C13.04 28.78 11.89 28.12 10.75 27.29C9.6 26.45 8.51 25.52 7.47 24.49C6.44 23.45 5.51 22.36 4.68 21.22C3.86 20.08 3.2 18.94 2.72 17.81C2.24 16.67 2 15.58 2 14.54C2 13.86 2.12 13.21 2.36 12.61C2.6 12 2.98 11.44 3.51 10.94C4.15 10.31 4.85 10 5.59 10C5.87 10 6.15 10.06 6.4 10.18C6.66 10.3 6.89 10.48 7.07 10.74L9.39 14.01C9.57 14.26 9.7 14.49 9.79 14.71C9.88 14.92 9.93 15.13 9.93 15.32C9.93 15.56 9.86 15.8 9.72 16.03C9.59 16.26 9.4 16.5 9.16 16.74L8.4 17.53C8.29 17.64 8.24 17.77 8.24 17.93C8.24 18.01 8.25 18.08 8.27 18.16C8.3 18.24 8.33 18.3 8.35 18.36C8.53 18.69 8.84 19.12 9.28 19.64C9.73 20.16 10.21 20.69 10.73 21.22C11.27 21.75 11.79 22.24 12.32 22.69C12.84 23.13 13.27 23.43 13.61 23.61C13.66 23.63 13.72 23.66 13.79 23.69C13.87 23.72 13.95 23.73 14.04 23.73C14.21 23.73 14.34 23.67 14.45 23.56L15.21 22.81C15.46 22.56 15.7 22.37 15.93 22.25C16.16 22.11 16.39 22.04 16.64 22.04C16.83 22.04 17.03 22.08 17.25 22.17C17.47 22.26 17.7 22.39 17.95 22.56L21.26 24.91C21.52 25.09 21.7 25.3 21.81 25.55C21.91 25.8 21.97 26.05 21.97 26.33Z" stroke="#CECFD0" stroke-width="1.5" stroke-miterlimit="10"/>
</svg>
