<svg width="78" height="83" viewBox="0 0 78 83" fill="none" xmlns="http://www.w3.org/2000/svg">
<path opacity="0.2" d="M71.3849 29.942C65.033 13.4055 46.4784 5.14926 29.9419 11.5011C13.4055 17.8529 5.14917 36.4076 11.501 52.944C17.8528 69.4805 36.4075 77.7368 52.944 71.385C69.4804 65.0331 77.7367 46.4785 71.3849 29.942ZM17.0574 50.8098C11.8843 37.342 18.6084 22.2306 32.0762 17.0575C45.544 11.8844 60.6554 18.6085 65.8285 32.0763C71.0016 45.5441 64.2775 60.6555 50.8097 65.8286C37.3419 71.0017 22.2305 64.2775 17.0574 50.8098Z" fill="#673AB7"/>
<path d="M37.2712 12.8708C37.0159 11.1223 38.2275 9.48106 39.9927 9.40116C44.4238 9.20059 48.8606 9.9209 53.0189 11.5301C58.1747 13.5253 62.7272 16.8192 66.2348 21.0923C69.7425 25.3654 72.0861 30.4725 73.0384 35.9182C73.8064 40.3104 73.6483 44.8025 72.5881 49.1096C72.1658 50.8254 70.3199 51.6939 68.6547 51.1028C66.9895 50.5117 66.14 48.6843 66.5195 46.9585C67.2359 43.7015 67.3131 40.3256 66.7351 37.0204C65.9728 32.6612 64.0967 28.5729 61.2889 25.1523C58.481 21.7317 54.8367 19.0949 50.7095 17.4978C47.5804 16.2868 44.2542 15.7047 40.9199 15.7726C39.1533 15.8086 37.5265 14.6193 37.2712 12.8708Z" fill="#673AB7"/>
</svg>
