<svg width="78" height="83" viewBox="0 0 78 83" fill="none" xmlns="http://www.w3.org/2000/svg">
<path opacity="0.2" d="M71.3849 29.942C65.0331 13.4055 46.4784 5.14926 29.942 11.5011C13.4055 17.8529 5.1492 36.4076 11.501 52.944C17.8529 69.4805 36.4075 77.7368 52.944 71.385C69.4805 65.0331 77.7367 46.4785 71.3849 29.942ZM17.0574 50.8098C11.8843 37.342 18.6085 22.2306 32.0762 17.0575C45.544 11.8844 60.6554 18.6085 65.8285 32.0763C71.0016 45.5441 64.2775 60.6555 50.8097 65.8286C37.3419 71.0017 22.2305 64.2775 17.0574 50.8098Z" fill="#673AB7"/>
<path d="M37.2712 12.8708C37.0159 11.1223 38.2274 9.48107 39.9926 9.40116C43.7693 9.23021 47.5553 9.72797 51.1736 10.88C55.8107 12.3563 60.0511 14.8685 63.5736 18.2262C67.0961 21.5839 69.8085 25.6991 71.5052 30.2602C73.2019 34.8212 73.8385 39.7086 73.3668 44.5521C72.8951 49.3957 71.3274 54.0684 68.7826 58.2164C66.2377 62.3644 62.7824 65.8789 58.6782 68.4939C54.574 71.1088 49.9286 72.7556 45.0938 73.3095C41.3211 73.7417 37.5103 73.4997 33.8376 72.6032C32.1209 72.1843 31.2488 70.3401 31.8367 68.6737V68.6737C32.4245 67.0074 34.2503 66.1543 35.9768 66.5304C38.7238 67.129 41.5579 67.2738 44.3655 66.9522C48.2357 66.5088 51.9544 65.1905 55.2398 63.0973C58.5252 61.004 61.2912 58.1906 63.3283 54.8701C65.3655 51.5496 66.6204 47.8091 66.998 43.9319C67.3756 40.0547 66.866 36.1423 65.5078 32.4912C64.1496 28.84 61.9783 25.5458 59.1586 22.858C56.3388 20.1701 52.9444 18.1592 49.2324 16.9773C46.5396 16.12 43.7309 15.7153 40.9199 15.7726C39.1533 15.8086 37.5265 14.6193 37.2712 12.8708V12.8708Z" fill="#673AB7"/>
</svg>
